<svg width="430" height="129" viewBox="0 0 430 129" fill="none" xmlns="http://www.w3.org/2000/svg">
<g id="ZTPillars" clip-path="url(#clip0_221_2)">
<rect width="430" height="129" fill="white"/>
<rect id="Rectangle 267" y="113" width="430" height="16" fill="#8A8A8A"/>
<path id="Rectangle 268" d="M217 0L430 7.5V12H0V7.5L217 0Z" fill="#8A8A8A"/>
<g id="Pillar 1">
<rect id="Rectangle 268_2" x="10" y="107" width="50" height="6" fill="#E8F5D5"/>
<path id="Rectangle 270" d="M10 12H60V15L45.5 18H25L10 15V12Z" fill="#E8F5D5"/>
<path id="Rectangle 269" d="M25 18H45.5L50 107H20L25 18Z" fill="#E8F5D5"/>
<path id="User" d="M31.7273 68.3466L31.7273 67.4659L36.5426 67.4659C37.0398 67.4659 37.4837 67.5831 37.8743 67.8175C38.2625 68.0495 38.5691 68.3774 38.794 68.8011C39.0166 69.2249 39.1278 69.7221 39.1278 70.2926C39.1278 70.8632 39.0166 71.3603 38.794 71.7841C38.5691 72.2079 38.2625 72.5369 37.8743 72.7713C37.4837 73.0033 37.0398 73.1193 36.5426 73.1193L31.7273 73.1193L31.7273 72.2386L36.4716 72.2386C36.8267 72.2386 37.1428 72.1605 37.4197 72.0043C37.6944 71.848 37.911 71.6255 38.0696 71.3366C38.2259 71.0455 38.304 70.6974 38.304 70.2926C38.304 69.8878 38.2259 69.5398 38.0696 69.2486C37.911 68.9574 37.6944 68.7348 37.4197 68.581C37.1428 68.4247 36.8267 68.3466 36.4716 68.3466L31.7273 68.3466ZM34.767 61.9572L34.9801 62.71C34.8546 62.7574 34.7327 62.8272 34.6143 62.9196C34.4936 63.0095 34.3942 63.1326 34.3161 63.2889C34.2379 63.4451 34.1989 63.6452 34.1989 63.889C34.1989 64.2228 34.2758 64.501 34.4297 64.7235C34.5812 64.9437 34.7741 65.0538 35.0085 65.0538C35.2169 65.0538 35.3814 64.978 35.5021 64.8265C35.6229 64.675 35.7235 64.4383 35.804 64.1163L36.0028 63.3066C36.1212 62.819 36.3023 62.4556 36.5462 62.2164C36.7876 61.9773 37.099 61.8578 37.4801 61.8578C37.7926 61.8578 38.072 61.9477 38.3182 62.1277C38.5644 62.3052 38.7585 62.5538 38.9006 62.8734C39.0426 63.193 39.1136 63.5647 39.1136 63.9885C39.1136 64.5448 38.9929 65.0053 38.7514 65.3699C38.5099 65.7344 38.1572 65.9653 37.6932 66.0623L37.4943 65.2669C37.7879 65.1911 38.008 65.0479 38.1548 64.8372C38.3016 64.6241 38.375 64.3459 38.375 64.0027C38.375 63.612 38.2921 63.3019 38.1264 63.0723C37.9583 62.8403 37.7571 62.7243 37.5227 62.7243C37.3333 62.7243 37.1747 62.7905 37.0469 62.9231C36.9167 63.0557 36.8196 63.2593 36.7557 63.5339L36.5426 64.443C36.4242 64.9425 36.2408 65.3095 35.9922 65.5439C35.7412 65.7759 35.4276 65.8919 35.0511 65.8919C34.7434 65.8919 34.4711 65.8055 34.2344 65.6326C33.9976 65.4574 33.8118 65.2195 33.6768 64.9189C33.5419 64.6158 33.4744 64.2725 33.4744 63.889C33.4744 63.3493 33.5928 62.9255 33.8295 62.6177C34.0663 62.3076 34.3788 62.0874 34.767 61.9572ZM39.1136 58.3093C39.1136 58.8349 38.9976 59.2882 38.7656 59.6694C38.5312 60.0482 38.2045 60.3406 37.7855 60.5465C37.3641 60.7501 36.8741 60.8519 36.3153 60.8519C35.7566 60.8519 35.2642 60.7501 34.8381 60.5465C34.4096 60.3406 34.0758 60.0541 33.8366 59.6871C33.5952 59.3178 33.4744 58.887 33.4744 58.3945C33.4744 58.1104 33.5218 57.8299 33.6165 57.5529C33.7112 57.2759 33.8651 57.0238 34.0781 56.7965C34.2888 56.5692 34.5682 56.3881 34.9162 56.2532C35.2642 56.1183 35.6927 56.0508 36.2017 56.0508L36.5568 56.0508L36.5568 60.2553L35.8324 60.2553L35.8324 56.9031C35.5246 56.9031 35.25 56.9646 35.0085 57.0877C34.767 57.2085 34.5765 57.3813 34.4368 57.6062C34.2971 57.8287 34.2273 58.0915 34.2273 58.3945C34.2273 58.7283 34.3101 59.0172 34.4759 59.261C34.6392 59.5025 34.8523 59.6883 35.1151 59.8185C35.3778 59.9487 35.6596 60.0138 35.9602 60.0138L36.4432 60.0138C36.8551 60.0138 37.2043 59.9428 37.4908 59.8008C37.7749 59.6564 37.9915 59.4563 38.1406 59.2006C38.2874 58.945 38.3608 58.6478 38.3608 58.3093C38.3608 58.0891 38.33 57.8903 38.2685 57.7127C38.2045 57.5328 38.1098 57.3777 37.9844 57.2475C37.8565 57.1173 37.6979 57.0167 37.5085 56.9457L37.7358 56.136C38.0104 56.2212 38.2519 56.3645 38.4602 56.5657C38.6662 56.7669 38.8272 57.0155 38.9432 57.3114C39.0568 57.6074 39.1136 57.94 39.1136 58.3093ZM39 54.7759L33.5455 54.7759L33.5455 53.9663L34.3693 53.9663L34.3693 53.9094C34.0994 53.81 33.8804 53.6301 33.7124 53.3697C33.5443 53.1093 33.4602 52.8157 33.4602 52.489C33.4602 52.4274 33.4614 52.3505 33.4638 52.2582C33.4661 52.1658 33.4697 52.096 33.4744 52.0487L34.3267 52.0487C34.3196 52.0771 34.3089 52.1422 34.2947 52.244C34.2782 52.3434 34.2699 52.4487 34.2699 52.56C34.2699 52.8252 34.3255 53.0619 34.4368 53.2702C34.5457 53.4762 34.6972 53.6396 34.8913 53.7603C35.0831 53.8787 35.3021 53.9379 35.5483 53.9379L39 53.9379L39 54.7759Z" fill="black"/>
<circle id="Ellipse 1" cx="34" cy="113" r="12.5" fill="#E8F5D5" stroke="#8A8A8A"/>
<path id="1" d="M35.2955 107.364V119H33.8864V108.841H33.8182L30.9773 110.727V109.295L33.8864 107.364H35.2955Z" fill="#8A8A8A"/>
</g>
<g id="Pillar 2">
<rect id="Rectangle 268_3" x="70" y="107" width="50" height="6" fill="#D2E9F8"/>
<path id="Rectangle 270_2" d="M70 12H120V15L105.5 18H85L70 15V12Z" fill="#D2E9F8"/>
<path id="Rectangle 269_2" d="M85 18H105.5L110 107H80L85 18Z" fill="#D2E9F8"/>
<path id="Device" d="M99 75.875L99 78.1193L91.7273 78.1193L91.7273 75.7756C91.7273 75.0701 91.8729 74.4664 92.1641 73.9645C92.4529 73.4626 92.8684 73.0779 93.4105 72.8104C93.9503 72.5428 94.5966 72.4091 95.3494 72.4091C96.107 72.4091 96.7592 72.544 97.3061 72.8139C97.8506 73.0838 98.2696 73.4768 98.5632 73.9929C98.8544 74.509 99 75.1364 99 75.875ZM98.2187 77.2386L98.2187 75.9318C98.2187 75.3305 98.1027 74.8321 97.8707 74.4368C97.6387 74.0414 97.3085 73.7467 96.88 73.5526C96.4515 73.3584 95.9413 73.2614 95.3494 73.2614C94.7623 73.2614 94.2569 73.3572 93.8331 73.549C93.407 73.7408 93.0803 74.0272 92.853 74.4084C92.6233 74.7895 92.5085 75.2642 92.5085 75.8324L92.5085 77.2386L98.2187 77.2386ZM99.1136 68.7585C99.1136 69.2841 98.9976 69.7375 98.7656 70.1186C98.5312 70.4974 98.2045 70.7898 97.7855 70.9957C97.3641 71.1993 96.8741 71.3011 96.3153 71.3011C95.7566 71.3011 95.2642 71.1993 94.8381 70.9957C94.4096 70.7898 94.0758 70.5033 93.8366 70.1364C93.5952 69.767 93.4744 69.3362 93.4744 68.8437C93.4744 68.5597 93.5218 68.2791 93.6165 68.0021C93.7112 67.7251 93.8651 67.473 94.0781 67.2457C94.2888 67.0185 94.5682 66.8374 94.9162 66.7024C95.2642 66.5675 95.6927 66.5 96.2017 66.5L96.5568 66.5L96.5568 70.7045L95.8324 70.7045L95.8324 67.3523C95.5246 67.3523 95.25 67.4138 95.0085 67.5369C94.767 67.6577 94.5765 67.8305 94.4368 68.0554C94.2971 68.2779 94.2273 68.5407 94.2273 68.8437C94.2273 69.1776 94.3101 69.4664 94.4759 69.7102C94.6392 69.9517 94.8523 70.1375 95.1151 70.2678C95.3778 70.398 95.6596 70.4631 95.9602 70.4631L96.4432 70.4631C96.8551 70.4631 97.2043 70.392 97.4908 70.25C97.7749 70.1056 97.9915 69.9055 98.1406 69.6499C98.2874 69.3942 98.3608 69.0971 98.3608 68.7585C98.3608 68.5384 98.33 68.3395 98.2685 68.1619C98.2045 67.982 98.1098 67.8269 97.9844 67.6967C97.8565 67.5665 97.6979 67.4659 97.5085 67.3949L97.7358 66.5852C98.0104 66.6705 98.2519 66.8137 98.4602 67.0149C98.6662 67.2161 98.8272 67.4647 98.9432 67.7607C99.0568 68.0566 99.1136 68.3892 99.1136 68.7585ZM93.5455 60.9309L99 62.948L99 63.8002L93.5455 65.8173L93.5455 64.9082L97.892 63.4025L97.892 63.3457L93.5455 61.84L93.5455 60.9309ZM99 59.8248L93.5455 59.8248L93.5455 58.9867L99 58.9867L99 59.8248ZM92.6364 59.3986C92.6364 59.562 92.5807 59.7028 92.4695 59.8212C92.3582 59.9372 92.2244 59.9952 92.0682 59.9952C91.9119 59.9952 91.7782 59.9372 91.6669 59.8212C91.5556 59.7028 91.5 59.562 91.5 59.3986C91.5 59.2353 91.5556 59.0956 91.6669 58.9796C91.7782 58.8612 91.9119 58.802 92.0682 58.802C92.2244 58.802 92.3582 58.8612 92.4695 58.9796C92.5807 59.0956 92.6364 59.2353 92.6364 59.3986ZM99.1136 55.2358C99.1136 55.7472 98.9929 56.1875 98.7514 56.5568C98.5099 56.9261 98.1773 57.2102 97.7536 57.4091C97.3298 57.608 96.8456 57.7074 96.3011 57.7074C95.7472 57.7074 95.2583 57.6056 94.8345 57.402C94.4084 57.196 94.0758 56.9096 93.8366 56.5426C93.5952 56.1733 93.4744 55.7424 93.4744 55.25C93.4744 54.8665 93.5455 54.5208 93.6875 54.2131C93.8295 53.9053 94.0284 53.6532 94.2841 53.4567C94.5398 53.2602 94.8381 53.1383 95.179 53.0909L95.179 53.929C94.9304 53.9929 94.7102 54.1349 94.5185 54.3551C94.3243 54.5729 94.2273 54.8665 94.2273 55.2358C94.2273 55.5625 94.3125 55.849 94.483 56.0952C94.651 56.339 94.889 56.5296 95.1967 56.6669C95.5021 56.8018 95.8608 56.8693 96.2727 56.8693C96.6941 56.8693 97.0611 56.803 97.3736 56.6705C97.6861 56.5355 97.9287 56.3461 98.1016 56.1023C98.2744 55.8561 98.3608 55.5672 98.3608 55.2358C98.3608 55.018 98.3229 54.8203 98.2472 54.6428C98.1714 54.4652 98.0625 54.3149 97.9205 54.1918C97.7784 54.0687 97.608 53.9811 97.4091 53.929L97.4091 53.0909C97.7311 53.1383 98.0211 53.2554 98.2791 53.4425C98.5348 53.6271 98.7384 53.8722 98.8899 54.1776C99.0391 54.4806 99.1136 54.8333 99.1136 55.2358ZM99.1136 49.5788C99.1136 50.1044 98.9976 50.5578 98.7656 50.9389C98.5312 51.3177 98.2045 51.6101 97.7855 51.8161C97.3641 52.0196 96.8741 52.1214 96.3153 52.1214C95.7566 52.1214 95.2642 52.0196 94.8381 51.8161C94.4096 51.6101 94.0758 51.3236 93.8366 50.9567C93.5952 50.5874 93.4744 50.1565 93.4744 49.6641C93.4744 49.38 93.5218 49.0994 93.6165 48.8224C93.7112 48.5455 93.8651 48.2933 94.0781 48.0661C94.2888 47.8388 94.5682 47.6577 94.9162 47.5227C95.2642 47.3878 95.6927 47.3203 96.2017 47.3203L96.5568 47.3203L96.5568 51.5249L95.8324 51.5249L95.8324 48.1726C95.5246 48.1726 95.25 48.2341 95.0085 48.3572C94.767 48.478 94.5765 48.6508 94.4368 48.8757C94.2971 49.0982 94.2273 49.361 94.2273 49.6641C94.2273 49.9979 94.3101 50.2867 94.4759 50.5305C94.6392 50.772 94.8523 50.9579 95.1151 51.0881C95.3778 51.2183 95.6596 51.2834 95.9602 51.2834L96.4432 51.2834C96.8551 51.2834 97.2043 51.2124 97.4908 51.0703C97.7749 50.9259 97.9915 50.7259 98.1406 50.4702C98.2874 50.2145 98.3608 49.9174 98.3608 49.5788C98.3608 49.3587 98.33 49.1598 98.2685 48.9822C98.2045 48.8023 98.1098 48.6473 97.9844 48.517C97.8565 48.3868 97.6979 48.2862 97.5085 48.2152L97.7358 47.4055C98.0104 47.4908 98.2519 47.634 98.4602 47.8352C98.6662 48.0365 98.8272 48.285 98.9432 48.581C99.0568 48.8769 99.1136 49.2095 99.1136 49.5788Z" fill="black"/>
<circle id="Ellipse 1_2" cx="95" cy="113" r="12.5" fill="#D2E9F8" stroke="#8A8A8A"/>
<path id="2" d="M91.2045 119V117.977L95.0455 113.773C95.4962 113.28 95.8674 112.852 96.1591 112.489C96.4508 112.121 96.6667 111.777 96.8068 111.455C96.9508 111.129 97.0227 110.788 97.0227 110.432C97.0227 110.023 96.9242 109.669 96.7273 109.369C96.5341 109.07 96.2689 108.839 95.9318 108.676C95.5947 108.513 95.2159 108.432 94.7955 108.432C94.3485 108.432 93.9583 108.525 93.625 108.71C93.2955 108.892 93.0398 109.148 92.858 109.477C92.6799 109.807 92.5909 110.193 92.5909 110.636H91.25C91.25 109.955 91.4072 109.356 91.7216 108.841C92.036 108.326 92.464 107.924 93.0057 107.636C93.5511 107.348 94.1629 107.205 94.8409 107.205C95.5227 107.205 96.1269 107.348 96.6534 107.636C97.1799 107.924 97.5928 108.312 97.892 108.801C98.1913 109.29 98.3409 109.833 98.3409 110.432C98.3409 110.86 98.2633 111.278 98.108 111.688C97.9564 112.093 97.6913 112.545 97.3125 113.045C96.9375 113.542 96.4167 114.148 95.75 114.864L93.1364 117.659V117.75H98.5455V119H91.2045Z" fill="#8A8A8A"/>
</g>
<g id="Pillar 3">
<rect id="Rectangle 268_4" x="130" y="107" width="50" height="6" fill="#F8ECB4"/>
<path id="Rectangle 270_3" d="M130 12H180V15L165.5 18H145L130 15V12Z" fill="#F8ECB4"/>
<path id="Rectangle 269_3" d="M145 18H165.5L170 107H140L145 18Z" fill="#F8ECB4"/>
<path id="Application &#38; Workload" d="M153 93.699L153 94.6222L145.727 91.9518L145.727 91.0427L153 88.3722L153 89.2955L146.878 91.4688L146.878 91.5257L153 93.699ZM150.159 93.358L150.159 89.6365L150.94 89.6365L150.94 93.358L150.159 93.358ZM155.045 87.3531L147.545 87.3531L147.545 86.5434L148.412 86.5434L148.412 86.444C148.317 86.3824 148.196 86.2972 148.05 86.1883C147.901 86.077 147.768 85.9184 147.652 85.7124C147.534 85.5041 147.474 85.2224 147.474 84.8673C147.474 84.408 147.589 84.0032 147.819 83.6528C148.049 83.3024 148.374 83.029 148.795 82.8325C149.217 82.636 149.714 82.5377 150.287 82.5377C150.865 82.5377 151.365 82.636 151.789 82.8325C152.21 83.029 152.537 83.3012 152.769 83.6492C152.999 83.9972 153.114 84.3985 153.114 84.8531C153.114 85.2034 153.056 85.484 152.94 85.6947C152.821 85.9054 152.687 86.0676 152.538 86.1812C152.387 86.2948 152.261 86.3824 152.162 86.444L152.162 86.515L155.045 86.515L155.045 87.3531ZM150.273 86.5292C150.685 86.5292 151.048 86.4688 151.363 86.3481C151.675 86.2274 151.92 86.051 152.098 85.819C152.273 85.587 152.361 85.3029 152.361 84.9667C152.361 84.6163 152.268 84.324 152.084 84.0896C151.897 83.8528 151.646 83.6753 151.331 83.5569C151.014 83.4362 150.661 83.3758 150.273 83.3758C149.889 83.3758 149.544 83.435 149.236 83.5534C148.926 83.6694 148.681 83.8457 148.501 84.0825C148.318 84.3168 148.227 84.6116 148.227 84.9667C148.227 85.3076 148.314 85.5941 148.487 85.8261C148.657 86.0581 148.896 86.2333 149.204 86.3517C149.509 86.47 149.866 86.5292 150.273 86.5292ZM155.045 81.2593L147.545 81.2593L147.545 80.4497L148.412 80.4497L148.412 80.3502C148.317 80.2887 148.196 80.2035 148.05 80.0945C147.901 79.9833 147.768 79.8247 147.652 79.6187C147.534 79.4104 147.474 79.1286 147.474 78.7735C147.474 78.3142 147.589 77.9094 147.819 77.559C148.049 77.2087 148.374 76.9352 148.795 76.7387C149.217 76.5422 149.714 76.444 150.287 76.444C150.865 76.444 151.365 76.5422 151.789 76.7387C152.21 76.9352 152.537 77.2075 152.769 77.5555C152.999 77.9035 153.114 78.3048 153.114 78.7593C153.114 79.1097 153.056 79.3902 152.94 79.6009C152.821 79.8116 152.687 79.9738 152.538 80.0874C152.387 80.2011 152.261 80.2887 152.162 80.3502L152.162 80.4213L155.045 80.4213L155.045 81.2593ZM150.273 80.4355C150.685 80.4355 151.048 80.3751 151.363 80.2543C151.675 80.1336 151.92 79.9572 152.098 79.7252C152.273 79.4932 152.361 79.2091 152.361 78.873C152.361 78.5226 152.268 78.2302 152.084 77.9958C151.897 77.7591 151.646 77.5815 151.331 77.4632C151.014 77.3424 150.661 77.282 150.273 77.282C149.889 77.282 149.544 77.3412 149.236 77.4596C148.926 77.5756 148.681 77.752 148.501 77.9887C148.318 78.2231 148.227 78.5178 148.227 78.873C148.227 79.2139 148.314 79.5003 148.487 79.7323C148.657 79.9643 148.896 80.1395 149.204 80.2579C149.509 80.3763 149.866 80.4355 150.273 80.4355ZM145.727 74.3275L153 74.3275L153 75.1656L145.727 75.1656L145.727 74.3275ZM153 72.7925L147.545 72.7925L147.545 71.9545L153 71.9545L153 72.7925ZM146.636 72.3664C146.636 72.5297 146.581 72.6706 146.469 72.789C146.358 72.905 146.224 72.963 146.068 72.963C145.912 72.963 145.778 72.905 145.667 72.789C145.556 72.6706 145.5 72.5297 145.5 72.3664C145.5 72.203 145.556 72.0634 145.667 71.9474C145.778 71.829 145.912 71.7698 146.068 71.7698C146.224 71.7698 146.358 71.829 146.469 71.9474C146.581 72.0634 146.636 72.203 146.636 72.3664ZM153.114 68.2036C153.114 68.7149 152.993 69.1553 152.751 69.5246C152.51 69.8939 152.177 70.178 151.754 70.3769C151.33 70.5757 150.846 70.6752 150.301 70.6752C149.747 70.6752 149.258 70.5734 148.835 70.3698C148.408 70.1638 148.076 69.8773 147.837 69.5104C147.595 69.1411 147.474 68.7102 147.474 68.2178C147.474 67.8343 147.545 67.4886 147.687 67.1808C147.83 66.8731 148.028 66.6209 148.284 66.4244C148.54 66.228 148.838 66.106 149.179 66.0587L149.179 66.8968C148.93 66.9607 148.71 67.1027 148.518 67.3229C148.324 67.5407 148.227 67.8343 148.227 68.2036C148.227 68.5303 148.312 68.8167 148.483 69.0629C148.651 69.3068 148.889 69.4974 149.197 69.6347C149.502 69.7696 149.861 69.8371 150.273 69.8371C150.694 69.8371 151.061 69.7708 151.374 69.6382C151.686 69.5033 151.929 69.3139 152.102 69.07C152.274 68.8238 152.361 68.535 152.361 68.2036C152.361 67.9858 152.323 67.7881 152.247 67.6105C152.171 67.433 152.062 67.2826 151.92 67.1595C151.778 67.0364 151.608 66.9488 151.409 66.8968L151.409 66.0587C151.731 66.106 152.021 66.2232 152.279 66.4102C152.535 66.5949 152.738 66.8399 152.89 67.1453C153.039 67.4484 153.114 67.8011 153.114 68.2036ZM153.128 63.2284C153.128 63.5741 153.063 63.8878 152.933 64.1695C152.8 64.4512 152.609 64.6749 152.361 64.8406C152.11 65.0064 151.807 65.0892 151.452 65.0892C151.139 65.0892 150.886 65.0277 150.692 64.9046C150.495 64.7815 150.341 64.6169 150.23 64.411C150.119 64.205 150.036 63.9777 149.982 63.7291C149.925 63.4782 149.88 63.2261 149.847 62.9727C149.804 62.6413 149.772 62.3726 149.751 62.1666C149.727 61.9583 149.688 61.8068 149.634 61.7121C149.579 61.615 149.484 61.5665 149.349 61.5665L149.321 61.5665C148.971 61.5665 148.698 61.6624 148.504 61.8541C148.31 62.0435 148.213 62.3312 148.213 62.7171C148.213 63.1172 148.301 63.4308 148.476 63.6581C148.651 63.8854 148.838 64.0452 149.037 64.1375L148.753 64.933C148.421 64.7909 148.163 64.6015 147.979 64.3648C147.792 64.1257 147.661 63.8653 147.588 63.5835C147.512 63.2994 147.474 63.0201 147.474 62.7455C147.474 62.5703 147.496 62.3691 147.538 62.1418C147.579 61.9121 147.663 61.6908 147.79 61.4777C147.918 61.2623 148.111 61.0835 148.369 60.9415C148.627 60.7994 148.973 60.7284 149.406 60.7284L153 60.7284L153 61.5665L152.261 61.5665L152.261 61.6091C152.38 61.6659 152.506 61.7606 152.641 61.8932C152.776 62.0258 152.891 62.2021 152.986 62.4223C153.08 62.6425 153.128 62.9112 153.128 63.2284ZM152.375 63.1006C152.375 62.7691 152.31 62.4898 152.18 62.2625C152.049 62.0329 151.881 61.8601 151.675 61.7441C151.469 61.6257 151.253 61.5665 151.026 61.5665L150.259 61.5665C150.301 61.602 150.34 61.6801 150.376 61.8009C150.409 61.9192 150.438 62.0566 150.464 62.2128C150.488 62.3667 150.509 62.517 150.528 62.6638C150.545 62.8082 150.559 62.9254 150.571 63.0154C150.599 63.2332 150.646 63.4368 150.71 63.6262C150.771 63.8132 150.865 63.9647 150.99 64.0807C151.113 64.1943 151.281 64.2512 151.494 64.2512C151.786 64.2512 152.006 64.1434 152.155 63.928C152.302 63.7102 152.375 63.4344 152.375 63.1006ZM147.545 56.8266L148.256 56.8266L148.256 59.6533L147.545 59.6533L147.545 56.8266ZM146.239 58.8295L146.239 57.9914L151.437 57.9914C151.674 57.9914 151.852 57.9571 151.97 57.8884C152.086 57.8174 152.164 57.7274 152.205 57.6185C152.242 57.5072 152.261 57.3901 152.261 57.267C152.261 57.1746 152.257 57.0989 152.247 57.0397C152.235 56.9805 152.226 56.9331 152.219 56.8976L152.972 56.7272C152.993 56.784 153.014 56.8633 153.036 56.9651C153.059 57.0669 153.071 57.1959 153.071 57.3522C153.071 57.5889 153.02 57.8209 152.918 58.0482C152.817 58.2731 152.661 58.4601 152.453 58.6093C152.245 58.7561 151.982 58.8295 151.665 58.8295L146.239 58.8295ZM153 55.566L147.545 55.566L147.545 54.7279L153 54.7279L153 55.566ZM146.636 55.1398C146.636 55.3032 146.581 55.444 146.469 55.5624C146.358 55.6784 146.224 55.7364 146.068 55.7364C145.912 55.7364 145.778 55.6784 145.667 55.5624C145.556 55.444 145.5 55.3032 145.5 55.1398C145.5 54.9765 145.556 54.8368 145.667 54.7208C145.778 54.6024 145.912 54.5432 146.068 54.5432C146.224 54.5432 146.358 54.6024 146.469 54.7208C146.581 54.8368 146.636 54.9765 146.636 55.1398ZM153.114 50.977C153.114 51.4694 152.996 51.9015 152.762 52.2732C152.528 52.6425 152.2 52.9313 151.778 53.1396C151.357 53.3456 150.865 53.4486 150.301 53.4486C149.733 53.4486 149.237 53.3456 148.813 53.1396C148.389 52.9313 148.06 52.6425 147.826 52.2732C147.592 51.9015 147.474 51.4694 147.474 50.977C147.474 50.4846 147.592 50.0537 147.826 49.6844C148.06 49.3127 148.389 49.0239 148.813 48.8179C149.237 48.6096 149.733 48.5054 150.301 48.5054C150.865 48.5054 151.357 48.6096 151.778 48.8179C152.2 49.0239 152.528 49.3127 152.762 49.6844C152.996 50.0537 153.114 50.4846 153.114 50.977ZM152.361 50.977C152.361 50.603 152.265 50.2952 152.073 50.0537C151.881 49.8122 151.629 49.6335 151.317 49.5175C151.004 49.4015 150.666 49.3435 150.301 49.3435C149.937 49.3435 149.597 49.4015 149.282 49.5175C148.967 49.6335 148.713 49.8122 148.518 50.0537C148.324 50.2952 148.227 50.603 148.227 50.977C148.227 51.3511 148.324 51.6588 148.518 51.9003C148.713 52.1418 148.967 52.3205 149.282 52.4365C149.597 52.5525 149.937 52.6105 150.301 52.6105C150.666 52.6105 151.004 52.5525 151.317 52.4365C151.629 52.3205 151.881 52.1418 152.073 51.9003C152.265 51.6588 152.361 51.3511 152.361 50.977ZM149.719 46.3881L153 46.388L153 47.2261L147.545 47.2261L147.545 46.4165L148.398 46.4165L148.398 46.3454C148.121 46.2176 147.898 46.0235 147.73 45.7631C147.56 45.5026 147.474 45.1665 147.474 44.7545C147.474 44.3852 147.55 44.0621 147.702 43.7851C147.851 43.5081 148.078 43.2926 148.384 43.1388C148.687 42.9849 149.07 42.9079 149.534 42.9079L153 42.9079L153 43.746L149.591 43.746C149.162 43.746 148.829 43.8573 148.589 44.0798C148.348 44.3023 148.227 44.6077 148.227 44.996C148.227 45.2635 148.285 45.5026 148.401 45.7133C148.517 45.9217 148.687 46.0862 148.909 46.2069C149.132 46.3277 149.402 46.3881 149.719 46.3881ZM153.099 36.5043C153.099 36.9826 153.012 37.3945 152.837 37.7401C152.661 38.0858 152.421 38.3521 152.116 38.5392C151.81 38.7262 151.461 38.8197 151.068 38.8197C150.765 38.8197 150.496 38.7558 150.262 38.6279C150.025 38.4977 149.806 38.319 149.605 38.0917C149.402 37.8621 149.198 37.5981 148.994 37.2998L148.213 36.2487C148.078 36.0427 147.934 35.8782 147.78 35.7551C147.626 35.6296 147.425 35.5668 147.176 35.5668C146.991 35.5668 146.813 35.6485 146.64 35.8119C146.467 35.9729 146.381 36.1847 146.381 36.4475C146.381 36.6322 146.428 36.7955 146.523 36.9376C146.615 37.0773 146.733 37.1874 146.878 37.2678C147.02 37.346 147.167 37.385 147.318 37.385C147.489 37.385 147.661 37.3389 147.837 37.2465C148.009 37.1518 148.187 37.0323 148.369 36.8879C148.549 36.7411 148.734 36.5896 148.923 36.4333L153 33.0953L153 34.1038L149.676 36.8595C149.368 37.1151 149.089 37.3472 148.838 37.5555C148.587 37.7638 148.34 37.9295 148.096 38.0526C147.852 38.1758 147.588 38.2373 147.304 38.2373C146.977 38.2373 146.691 38.1651 146.445 38.0207C146.196 37.8739 146.003 37.6691 145.866 37.4063C145.726 37.1412 145.656 36.8311 145.656 36.4759C145.656 36.1114 145.727 35.7977 145.869 35.5349C146.009 35.2721 146.195 35.0697 146.427 34.9276C146.656 34.7856 146.906 34.7146 147.176 34.7146C147.524 34.7146 147.826 34.801 148.082 34.9738C148.337 35.1466 148.575 35.3822 148.795 35.6805L149.875 37.1293C150.116 37.4561 150.351 37.6774 150.578 37.7934C150.805 37.9094 150.969 37.9674 151.068 37.9674C151.295 37.9674 151.507 37.9082 151.704 37.7899C151.9 37.6715 152.059 37.5046 152.18 37.2892C152.3 37.0737 152.361 36.8216 152.361 36.5328C152.361 36.2581 152.303 35.9906 152.187 35.7302C152.068 35.4698 151.898 35.2342 151.675 35.0235C151.453 34.8105 151.185 34.6424 150.873 34.5193C150.56 34.3938 150.209 34.3311 149.818 34.3311L149.818 33.5214C150.301 33.5214 150.695 33.577 151.001 33.6883C151.306 33.7996 151.545 33.925 151.718 34.0647C151.891 34.2044 152.02 34.3168 152.105 34.4021C152.141 34.4305 152.176 34.4565 152.212 34.4802C152.247 34.5039 152.283 34.5299 152.318 34.5583C152.581 34.7927 152.777 35.0886 152.908 35.4461C153.036 35.8036 153.099 36.1563 153.099 36.5043ZM165 82.4467L157.727 84.4354L157.727 83.5405L163.651 82.0206L163.651 81.9496L157.727 80.4013L157.727 79.407L163.651 77.8587L163.651 77.7876L157.727 76.2678L157.727 75.3729L165 77.3615L165 78.2706L159.205 79.8757L159.205 79.9325L165 81.5376L165 82.4467ZM165.114 72.6811C165.114 73.1735 164.996 73.6056 164.762 73.9773C164.528 74.3466 164.2 74.6354 163.778 74.8437C163.357 75.0497 162.865 75.1527 162.301 75.1527C161.733 75.1527 161.237 75.0497 160.813 74.8437C160.389 74.6354 160.06 74.3466 159.826 73.9773C159.592 73.6056 159.474 73.1735 159.474 72.6811C159.474 72.1887 159.592 71.7578 159.826 71.3885C160.06 71.0168 160.389 70.728 160.813 70.522C161.237 70.3137 161.733 70.2095 162.301 70.2095C162.865 70.2095 163.357 70.3137 163.778 70.522C164.2 70.728 164.528 71.0168 164.762 71.3885C164.996 71.7578 165.114 72.1887 165.114 72.6811ZM164.361 72.6811C164.361 72.3071 164.265 71.9993 164.073 71.7578C163.881 71.5163 163.629 71.3376 163.317 71.2216C163.004 71.1056 162.666 71.0476 162.301 71.0476C161.937 71.0476 161.597 71.1056 161.282 71.2216C160.967 71.3376 160.713 71.5163 160.518 71.7578C160.324 71.9993 160.227 72.3071 160.227 72.6811C160.227 73.0552 160.324 73.3629 160.518 73.6044C160.713 73.8459 160.967 74.0246 161.282 74.1406C161.597 74.2566 161.937 74.3146 162.301 74.3146C162.666 74.3146 163.004 74.2566 163.317 74.1406C163.629 74.0246 163.881 73.8459 164.073 73.6044C164.265 73.3629 164.361 73.0552 164.361 72.6811ZM165 68.9302L159.545 68.9302L159.545 68.1206L160.369 68.1206L160.369 68.0637C160.099 67.9643 159.88 67.7844 159.712 67.524C159.544 67.2636 159.46 66.97 159.46 66.6433C159.46 66.5817 159.461 66.5048 159.464 66.4125C159.466 66.3201 159.47 66.2503 159.474 66.2029L160.327 66.2029C160.32 66.2314 160.309 66.2965 160.295 66.3983C160.278 66.4977 160.27 66.603 160.27 66.7143C160.27 66.9795 160.326 67.2162 160.437 67.4245C160.546 67.6305 160.697 67.7939 160.891 67.9146C161.083 68.033 161.302 68.0922 161.548 68.0922L165 68.0922L165 68.9302ZM163.011 64.4283L161.974 64.4425L161.974 64.272L159.545 61.8857L159.545 60.8487L162.116 63.3913L162.116 63.4624L163.011 64.4283ZM165 65.2095L157.727 65.2095L157.727 64.3714L165 64.3714L165 65.2095ZM165 61.7436L162.301 63.8743L161.719 63.2777L165 60.6783L165 61.7436ZM157.727 58.932L165 58.932L165 59.7701L157.727 59.7701L157.727 58.932ZM165.114 55.1811C165.114 55.6735 164.996 56.1056 164.762 56.4773C164.528 56.8466 164.2 57.1354 163.778 57.3437C163.357 57.5497 162.865 57.6527 162.301 57.6527C161.733 57.6527 161.237 57.5497 160.813 57.3437C160.389 57.1354 160.06 56.8466 159.826 56.4773C159.592 56.1056 159.474 55.6735 159.474 55.1811C159.474 54.6887 159.592 54.2578 159.826 53.8885C160.06 53.5168 160.389 53.228 160.813 53.022C161.237 52.8137 161.733 52.7095 162.301 52.7095C162.865 52.7095 163.357 52.8137 163.778 53.022C164.2 53.228 164.528 53.5168 164.762 53.8885C164.996 54.2578 165.114 54.6887 165.114 55.1811ZM164.361 55.1811C164.361 54.8071 164.265 54.4993 164.073 54.2578C163.881 54.0163 163.629 53.8376 163.317 53.7216C163.004 53.6056 162.666 53.5476 162.301 53.5476C161.937 53.5476 161.597 53.6056 161.282 53.7216C160.967 53.8376 160.713 54.0163 160.518 54.2578C160.324 54.4993 160.227 54.8071 160.227 55.1811C160.227 55.5552 160.324 55.8629 160.518 56.1044C160.713 56.3459 160.967 56.5246 161.282 56.6406C161.597 56.7566 161.937 56.8146 162.301 56.8146C162.666 56.8146 163.004 56.7566 163.317 56.6406C163.629 56.5246 163.881 56.3459 164.073 56.1044C164.265 55.8629 164.361 55.5552 164.361 55.1811ZM165.128 49.8251C165.128 50.1707 165.063 50.4844 164.933 50.7662C164.8 51.0479 164.609 51.2716 164.361 51.4373C164.11 51.603 163.807 51.6859 163.452 51.6859C163.139 51.6859 162.886 51.6243 162.692 51.5012C162.495 51.3781 162.341 51.2136 162.23 51.0076C162.119 50.8017 162.036 50.5744 161.982 50.3258C161.925 50.0749 161.88 49.8227 161.847 49.5694C161.804 49.238 161.772 48.9693 161.751 48.7633C161.727 48.555 161.688 48.4035 161.634 48.3088C161.579 48.2117 161.484 48.1632 161.349 48.1632L161.321 48.1632C160.971 48.1632 160.698 48.2591 160.504 48.4508C160.31 48.6402 160.213 48.9279 160.213 49.3137C160.213 49.7138 160.301 50.0275 160.476 50.2548C160.651 50.4821 160.838 50.6419 161.037 50.7342L160.753 51.5297C160.421 51.3876 160.163 51.1982 159.979 50.9615C159.792 50.7224 159.661 50.4619 159.588 50.1802C159.512 49.8961 159.474 49.6168 159.474 49.3422C159.474 49.167 159.496 48.9657 159.538 48.7385C159.579 48.5088 159.663 48.2875 159.79 48.0744C159.918 47.859 160.111 47.6802 160.369 47.5382C160.627 47.3961 160.973 47.3251 161.406 47.3251L165 47.3251L165 48.1632L164.261 48.1632L164.261 48.2058C164.38 48.2626 164.506 48.3573 164.641 48.4899C164.776 48.6225 164.891 48.7988 164.986 49.019C165.08 49.2392 165.128 49.5079 165.128 49.8251ZM164.375 49.6973C164.375 49.3658 164.31 49.0865 164.18 48.8592C164.049 48.6296 163.881 48.4567 163.675 48.3407C163.469 48.2224 163.253 48.1632 163.026 48.1632L162.259 48.1632C162.301 48.1987 162.34 48.2768 162.376 48.3975C162.409 48.5159 162.438 48.6532 162.464 48.8095C162.488 48.9634 162.509 49.1137 162.528 49.2605C162.545 49.4049 162.559 49.5221 162.571 49.612C162.599 49.8298 162.646 50.0334 162.71 50.2228C162.771 50.4099 162.865 50.5614 162.99 50.6774C163.113 50.791 163.281 50.8478 163.494 50.8478C163.786 50.8478 164.006 50.7401 164.155 50.5247C164.302 50.3069 164.375 50.0311 164.375 49.6973ZM165.114 43.7358C165.114 44.1903 164.999 44.5916 164.769 44.9396C164.537 45.2876 164.21 45.5599 163.789 45.7564C163.365 45.9529 162.865 46.0511 162.287 46.0511C161.714 46.0511 161.217 45.9529 160.795 45.7564C160.374 45.5599 160.049 45.2865 159.819 44.9361C159.589 44.5857 159.474 44.1809 159.474 43.7216C159.474 43.3665 159.534 43.0859 159.652 42.88C159.768 42.6716 159.901 42.513 160.05 42.4041C160.196 42.2928 160.317 42.2064 160.412 42.1449L160.412 42.0739L157.727 42.0739L157.727 41.2358L165 41.2358L165 42.0455L164.162 42.0455L164.162 42.1449C164.261 42.2064 164.387 42.294 164.538 42.4077C164.687 42.5213 164.821 42.6835 164.94 42.8942C165.056 43.1049 165.114 43.3854 165.114 43.7358ZM164.361 43.6222C164.361 43.286 164.273 43.0019 164.098 42.7699C163.92 42.5379 163.675 42.3615 163.363 42.2408C163.048 42.12 162.685 42.0597 162.273 42.0597C161.866 42.0597 161.509 42.1188 161.204 42.2372C160.896 42.3556 160.657 42.5308 160.487 42.7628C160.314 42.9948 160.227 43.2812 160.227 43.6222C160.227 43.9773 160.318 44.2732 160.501 44.5099C160.681 44.7443 160.926 44.9207 161.236 45.0391C161.544 45.1551 161.889 45.2131 162.273 45.2131C162.661 45.2131 163.014 45.1539 163.331 45.0355C163.646 44.9148 163.897 44.7372 164.084 44.5028C164.268 44.2661 164.361 43.9725 164.361 43.6222Z" fill="black"/>
<circle id="Ellipse 1_3" cx="155" cy="113" r="12.5" fill="#F8ECB4" stroke="#8A8A8A"/>
<path id="3" d="M155.136 119.159C154.386 119.159 153.718 119.03 153.131 118.773C152.547 118.515 152.083 118.157 151.739 117.699C151.398 117.237 151.212 116.701 151.182 116.091H152.614C152.644 116.466 152.773 116.79 153 117.062C153.227 117.331 153.525 117.54 153.892 117.688C154.259 117.835 154.667 117.909 155.114 117.909C155.614 117.909 156.057 117.822 156.443 117.648C156.83 117.473 157.133 117.231 157.352 116.92C157.572 116.61 157.682 116.25 157.682 115.841C157.682 115.413 157.576 115.036 157.364 114.71C157.152 114.381 156.841 114.123 156.432 113.938C156.023 113.752 155.523 113.659 154.932 113.659H154V112.409H154.932C155.394 112.409 155.799 112.326 156.148 112.159C156.5 111.992 156.775 111.758 156.972 111.455C157.172 111.152 157.273 110.795 157.273 110.386C157.273 109.992 157.186 109.65 157.011 109.358C156.837 109.066 156.591 108.839 156.273 108.676C155.958 108.513 155.587 108.432 155.159 108.432C154.758 108.432 154.379 108.506 154.023 108.653C153.67 108.797 153.383 109.008 153.159 109.284C152.936 109.557 152.814 109.886 152.795 110.273H151.432C151.455 109.663 151.638 109.129 151.983 108.67C152.328 108.208 152.778 107.848 153.335 107.591C153.896 107.333 154.511 107.205 155.182 107.205C155.902 107.205 156.519 107.35 157.034 107.642C157.549 107.93 157.945 108.311 158.222 108.784C158.498 109.258 158.636 109.769 158.636 110.318C158.636 110.973 158.464 111.532 158.119 111.994C157.778 112.456 157.314 112.777 156.727 112.955V113.045C157.462 113.167 158.036 113.479 158.449 113.983C158.862 114.483 159.068 115.102 159.068 115.841C159.068 116.473 158.896 117.042 158.551 117.545C158.21 118.045 157.744 118.439 157.153 118.727C156.563 119.015 155.89 119.159 155.136 119.159Z" fill="#8A8A8A"/>
</g>
<g id="Pillar 4">
<rect id="Rectangle 268_5" x="190" y="107" width="50" height="6" fill="#D0CECE"/>
<path id="Rectangle 270_4" d="M190 12H240V15L225.5 18H205L190 15V12Z" fill="#D0CECE"/>
<path id="Rectangle 269_4" d="M205 18H225.5L230 107H200L205 18Z" fill="#D0CECE"/>
<path id="Data" d="M219 70.875L219 73.1193L211.727 73.1193L211.727 70.7756C211.727 70.0701 211.873 69.4664 212.164 68.9645C212.453 68.4626 212.868 68.0779 213.411 67.8104C213.95 67.5428 214.597 67.4091 215.349 67.4091C216.107 67.4091 216.759 67.544 217.306 67.8139C217.851 68.0838 218.27 68.4768 218.563 68.9929C218.854 69.509 219 70.1364 219 70.875ZM218.219 72.2386L218.219 70.9318C218.219 70.3305 218.103 69.8321 217.871 69.4368C217.639 69.0414 217.308 68.7467 216.88 68.5526C216.451 68.3584 215.941 68.2614 215.349 68.2614C214.762 68.2614 214.257 68.3572 213.833 68.549C213.407 68.7408 213.08 69.0272 212.853 69.4084C212.623 69.7895 212.509 70.2642 212.509 70.8324L212.509 72.2386L218.219 72.2386ZM219.128 64.4403C219.128 64.786 219.063 65.0997 218.933 65.3814C218.8 65.6631 218.609 65.8868 218.361 66.0526C218.11 66.2183 217.807 66.3011 217.452 66.3011C217.139 66.3011 216.886 66.2396 216.692 66.1165C216.495 65.9934 216.341 65.8288 216.23 65.6229C216.119 65.4169 216.036 65.1896 215.982 64.9411C215.925 64.6901 215.88 64.438 215.847 64.1847C215.804 63.8532 215.772 63.5845 215.751 63.3786C215.727 63.1702 215.688 63.0187 215.634 62.924C215.579 62.8269 215.484 62.7784 215.349 62.7784L215.321 62.7784C214.971 62.7784 214.698 62.8743 214.504 63.0661C214.31 63.2554 214.213 63.5431 214.213 63.929C214.213 64.3291 214.301 64.6428 214.476 64.87C214.651 65.0973 214.838 65.2571 215.037 65.3494L214.753 66.1449C214.421 66.0028 214.163 65.8134 213.979 65.5767C213.792 65.3376 213.661 65.0772 213.588 64.7955C213.512 64.5114 213.474 64.232 213.474 63.9574C213.474 63.7822 213.496 63.581 213.538 63.3537C213.579 63.1241 213.663 62.9027 213.79 62.6896C213.918 62.4742 214.111 62.2955 214.369 62.1534C214.627 62.0114 214.973 61.9403 215.406 61.9403L219 61.9403L219 62.7784L218.261 62.7784L218.261 62.821C218.38 62.8778 218.506 62.9725 218.641 63.1051C218.776 63.2377 218.891 63.4141 218.986 63.6342C219.08 63.8544 219.128 64.1231 219.128 64.4403ZM218.375 64.3125C218.375 63.9811 218.31 63.7017 218.18 63.4744C218.049 63.2448 217.881 63.072 217.675 62.956C217.469 62.8376 217.253 62.7784 217.026 62.7784L216.259 62.7784C216.301 62.8139 216.34 62.892 216.376 63.0128C216.409 63.1312 216.438 63.2685 216.464 63.4247C216.488 63.5786 216.509 63.7289 216.528 63.8757C216.545 64.0201 216.559 64.1373 216.571 64.2273C216.599 64.4451 216.646 64.6487 216.71 64.8381C216.771 65.0251 216.865 65.1766 216.99 65.2926C217.113 65.4062 217.281 65.4631 217.494 65.4631C217.786 65.4631 218.006 65.3553 218.155 65.1399C218.302 64.9221 218.375 64.6463 218.375 64.3125ZM213.545 58.0385L214.256 58.0385L214.256 60.8652L213.545 60.8652L213.545 58.0385ZM212.239 60.0414L212.239 59.2033L217.437 59.2033C217.674 59.2033 217.852 59.169 217.97 59.1003C218.086 59.0293 218.164 58.9393 218.205 58.8304C218.242 58.7192 218.261 58.602 218.261 58.4789C218.261 58.3865 218.257 58.3108 218.247 58.2516C218.235 58.1924 218.226 58.1451 218.219 58.1096L218.972 57.9391C218.993 57.9959 219.014 58.0752 219.036 58.177C219.059 58.2788 219.071 58.4078 219.071 58.5641C219.071 58.8008 219.02 59.0328 218.918 59.2601C218.817 59.485 218.661 59.6721 218.453 59.8212C218.245 59.968 217.982 60.0414 217.665 60.0414L212.239 60.0414ZM219.128 55.1728C219.128 55.5184 219.063 55.8321 218.933 56.1138C218.8 56.3955 218.609 56.6193 218.361 56.785C218.11 56.9507 217.807 57.0336 217.452 57.0336C217.139 57.0336 216.886 56.972 216.692 56.8489C216.495 56.7258 216.341 56.5613 216.23 56.3553C216.119 56.1493 216.036 55.9221 215.982 55.6735C215.925 55.4225 215.88 55.1704 215.847 54.9171C215.804 54.5856 215.772 54.3169 215.751 54.111C215.727 53.9026 215.688 53.7511 215.634 53.6564C215.579 53.5594 215.484 53.5108 215.349 53.5108L215.321 53.5108C214.971 53.5108 214.698 53.6067 214.504 53.7985C214.31 53.9879 214.213 54.2755 214.213 54.6614C214.213 55.0615 214.301 55.3752 214.476 55.6024C214.651 55.8297 214.838 55.9895 215.037 56.0819L214.753 56.8773C214.421 56.7353 214.163 56.5459 213.979 56.3091C213.792 56.07 213.661 55.8096 213.588 55.5279C213.512 55.2438 213.474 54.9644 213.474 54.6898C213.474 54.5146 213.496 54.3134 213.538 54.0861C213.579 53.8565 213.663 53.6351 213.79 53.4221C213.918 53.2066 214.111 53.0279 214.369 52.8858C214.627 52.7438 214.973 52.6728 215.406 52.6728L219 52.6728L219 53.5108L218.261 53.5108L218.261 53.5534C218.38 53.6103 218.506 53.705 218.641 53.8375C218.776 53.9701 218.891 54.1465 218.986 54.3667C219.08 54.5868 219.128 54.8555 219.128 55.1728ZM218.375 55.0449C218.375 54.7135 218.31 54.4341 218.18 54.2069C218.049 53.9772 217.881 53.8044 217.675 53.6884C217.469 53.57 217.253 53.5108 217.026 53.5108L216.259 53.5108C216.301 53.5463 216.34 53.6245 216.376 53.7452C216.409 53.8636 216.438 54.0009 216.464 54.1571C216.488 54.311 216.509 54.4614 216.528 54.6081C216.545 54.7525 216.559 54.8697 216.571 54.9597C216.599 55.1775 216.646 55.3811 216.71 55.5705C216.771 55.7575 216.865 55.909 216.99 56.025C217.113 56.1387 217.281 56.1955 217.494 56.1955C217.786 56.1955 218.006 56.0878 218.155 55.8723C218.302 55.6545 218.375 55.3787 218.375 55.0449Z" fill="black"/>
<circle id="Ellipse 1_4" cx="215" cy="113" r="12.5" fill="#D0CECE" stroke="#8A8A8A"/>
<path id="4" d="M210.932 116.614V115.455L216.045 107.364H216.886V109.159H216.318L212.455 115.273V115.364H219.341V116.614H210.932ZM216.409 119V116.261V115.722V107.364H217.75V119H216.409Z" fill="#8A8A8A"/>
</g>
<g id="Pillar 5">
<rect id="Rectangle 268_6" x="250" y="107" width="50" height="6" fill="#FBD7AF"/>
<path id="Rectangle 270_5" d="M250 12H300V15L285.5 18H265L250 15V12Z" fill="#FBD7AF"/>
<path id="Rectangle 269_5" d="M265 18H285.5L290 107H260L265 18Z" fill="#FBD7AF"/>
<path id="Network &#38; Environment" d="M266.727 81.8874L274 81.8874L274 82.7397L268.29 86.7028L268.29 86.7738L274 86.7738L274 87.6545L266.727 87.6545L266.727 86.8022L272.452 82.8249L272.452 82.7539L266.727 82.7539L266.727 81.8874ZM274.114 77.9519C274.114 78.4774 273.998 78.9308 273.766 79.312C273.531 79.6908 273.205 79.9831 272.786 80.1891C272.364 80.3927 271.874 80.4945 271.315 80.4945C270.757 80.4945 270.264 80.3927 269.838 80.1891C269.41 79.9831 269.076 79.6967 268.837 79.3297C268.595 78.9604 268.474 78.5295 268.474 78.0371C268.474 77.753 268.522 77.4725 268.616 77.1955C268.711 76.9185 268.865 76.6664 269.078 76.4391C269.289 76.2118 269.568 76.0307 269.916 75.8958C270.264 75.7608 270.693 75.6934 271.202 75.6934L271.557 75.6934L271.557 79.8979L270.832 79.8979L270.832 76.5456C270.525 76.5456 270.25 76.6072 270.009 76.7303C269.767 76.851 269.576 77.0239 269.437 77.2488C269.297 77.4713 269.227 77.7341 269.227 78.0371C269.227 78.3709 269.31 78.6597 269.476 78.9036C269.639 79.1451 269.852 79.3309 270.115 79.4611C270.378 79.5913 270.66 79.6564 270.96 79.6564L271.443 79.6564C271.855 79.6564 272.204 79.5854 272.491 79.4434C272.775 79.2989 272.991 79.0989 273.141 78.8432C273.287 78.5875 273.361 78.2904 273.361 77.9519C273.361 77.7317 273.33 77.5328 273.268 77.3553C273.205 77.1754 273.11 77.0203 272.984 76.8901C272.857 76.7599 272.698 76.6593 272.509 76.5882L272.736 75.7786C273.01 75.8638 273.252 76.007 273.46 76.2083C273.666 76.4095 273.827 76.6581 273.943 76.954C274.057 77.2499 274.114 77.5826 274.114 77.9519ZM268.545 72.0463L269.256 72.0463L269.256 74.873L268.545 74.873L268.545 72.0463ZM267.239 74.0492L267.239 73.2111L272.437 73.2111C272.674 73.2111 272.852 73.1768 272.97 73.1081C273.086 73.0371 273.164 72.9471 273.205 72.8382C273.242 72.727 273.261 72.6098 273.261 72.4867C273.261 72.3944 273.257 72.3186 273.247 72.2594C273.235 72.2002 273.226 72.1529 273.219 72.1174L273.972 71.9469C273.993 72.0037 274.014 72.083 274.036 72.1848C274.059 72.2866 274.071 72.4157 274.071 72.5719C274.071 72.8087 274.02 73.0407 273.918 73.2679C273.817 73.4928 273.661 73.6799 273.453 73.829C273.245 73.9758 272.982 74.0492 272.665 74.0492L267.239 74.0492ZM274 69.5499L268.545 71.2118L268.545 70.3311L272.722 69.1522L272.722 69.0953L268.545 67.9306L268.545 67.0357L272.707 65.8851L272.707 65.8283L268.545 64.6493L268.545 63.7686L274 65.4306L274 66.2544L269.81 67.4476L269.81 67.5328L274 68.726L274 69.5499ZM274.114 60.6303C274.114 61.1228 273.996 61.5548 273.762 61.9265C273.528 62.2958 273.2 62.5846 272.778 62.793C272.357 62.9989 271.865 63.1019 271.301 63.1019C270.733 63.1019 270.237 62.9989 269.813 62.793C269.389 62.5846 269.06 62.2958 268.826 61.9265C268.592 61.5548 268.474 61.1228 268.474 60.6303C268.474 60.1379 268.592 59.707 268.826 59.3377C269.06 58.966 269.389 58.6772 269.813 58.4712C270.237 58.2629 270.733 58.1587 271.301 58.1587C271.865 58.1587 272.357 58.2629 272.778 58.4712C273.2 58.6772 273.528 58.966 273.762 59.3377C273.996 59.707 274.114 60.1379 274.114 60.6303ZM273.361 60.6303C273.361 60.2563 273.265 59.9485 273.073 59.707C272.881 59.4656 272.629 59.2868 272.317 59.1708C272.004 59.0548 271.666 58.9968 271.301 58.9968C270.937 58.9968 270.597 59.0548 270.282 59.1708C269.967 59.2868 269.713 59.4656 269.518 59.707C269.324 59.9485 269.227 60.2563 269.227 60.6303C269.227 61.0044 269.324 61.3121 269.518 61.5536C269.713 61.7951 269.967 61.9738 270.282 62.0898C270.597 62.2058 270.937 62.2638 271.301 62.2638C271.666 62.2638 272.004 62.2058 272.317 62.0898C272.629 61.9738 272.881 61.7951 273.073 61.5536C273.265 61.3121 273.361 61.0044 273.361 60.6303ZM274 56.8794L268.545 56.8794L268.545 56.0698L269.369 56.0698L269.369 56.013C269.099 55.9135 268.88 55.7336 268.712 55.4732C268.544 55.2128 268.46 54.9192 268.46 54.5925C268.46 54.531 268.461 54.454 268.464 54.3617C268.466 54.2694 268.47 54.1995 268.474 54.1522L269.327 54.1522C269.32 54.1806 269.309 54.2457 269.295 54.3475C269.278 54.4469 269.27 54.5523 269.27 54.6635C269.27 54.9287 269.326 55.1654 269.437 55.3738C269.546 55.5797 269.697 55.7431 269.891 55.8638C270.083 55.9822 270.302 56.0414 270.548 56.0414L274 56.0414L274 56.8794ZM272.011 52.3775L270.974 52.3917L270.974 52.2212L268.545 49.8349L268.545 48.7979L271.116 51.3406L271.116 51.4116L272.011 52.3775ZM274 53.1587L266.727 53.1587L266.727 52.3207L274 52.3207L274 53.1587ZM274 49.6928L271.301 51.8235L270.719 51.2269L274 48.6275L274 49.6928ZM274.099 42.8471C274.099 43.3253 274.012 43.7373 273.837 44.0829C273.661 44.4286 273.421 44.6949 273.116 44.8819C272.81 45.069 272.461 45.1625 272.068 45.1625C271.765 45.1625 271.496 45.0985 271.262 44.9707C271.025 44.8405 270.806 44.6618 270.605 44.4345C270.402 44.2048 270.198 43.9409 269.994 43.6426L269.213 42.5914C269.078 42.3855 268.934 42.2209 268.78 42.0978C268.626 41.9724 268.425 41.9096 268.176 41.9096C267.991 41.9096 267.813 41.9913 267.64 42.1547C267.467 42.3156 267.381 42.5275 267.381 42.7903C267.381 42.975 267.428 43.1383 267.523 43.2804C267.615 43.42 267.733 43.5301 267.878 43.6106C268.02 43.6887 268.167 43.7278 268.318 43.7278C268.489 43.7278 268.661 43.6816 268.837 43.5893C269.009 43.4946 269.187 43.3751 269.369 43.2306C269.549 43.0839 269.734 42.9324 269.923 42.7761L274 39.438L274 40.4466L270.676 43.2022C270.368 43.4579 270.089 43.6899 269.838 43.8983C269.587 44.1066 269.34 44.2723 269.096 44.3954C268.852 44.5185 268.588 44.5801 268.304 44.5801C267.977 44.5801 267.691 44.5079 267.445 44.3635C267.196 44.2167 267.003 44.0119 266.866 43.7491C266.726 43.484 266.656 43.1738 266.656 42.8187C266.656 42.4541 266.727 42.1404 266.869 41.8777C267.009 41.6149 267.195 41.4125 267.427 41.2704C267.656 41.1284 267.906 41.0574 268.176 41.0574C268.524 41.0574 268.826 41.1438 269.082 41.3166C269.337 41.4894 269.575 41.725 269.795 42.0233L270.875 43.4721C271.116 43.7988 271.351 44.0202 271.578 44.1362C271.805 44.2522 271.969 44.3102 272.068 44.3102C272.295 44.3102 272.507 44.251 272.704 44.1326C272.9 44.0143 273.059 43.8474 273.18 43.6319C273.3 43.4165 273.361 43.1644 273.361 42.8755C273.361 42.6009 273.303 42.3334 273.187 42.073C273.068 41.8126 272.898 41.577 272.675 41.3663C272.453 41.1532 272.185 40.9851 271.873 40.862C271.56 40.7366 271.209 40.6738 270.818 40.6738L270.818 39.8642C271.301 39.8642 271.695 39.9198 272.001 40.0311C272.306 40.1423 272.545 40.2678 272.718 40.4075C272.891 40.5472 273.02 40.6596 273.105 40.7449C273.141 40.7733 273.176 40.7993 273.212 40.823C273.247 40.8466 273.283 40.8727 273.318 40.9011C273.581 41.1355 273.777 41.4314 273.908 41.7889C274.036 42.1464 274.099 42.4991 274.099 42.8471ZM284 91.0871L276.727 91.0871L276.727 86.6979L277.509 86.6979L277.509 90.2064L279.966 90.2064L279.966 86.9252L280.747 86.9252L280.747 90.2064L283.219 90.2064L283.219 86.6411L284 86.6411L284 91.0871ZM280.719 84.3861L284 84.3861L284 85.2242L278.545 85.2242L278.545 84.4145L279.398 84.4145L279.398 84.3435C279.121 84.2156 278.898 84.0215 278.73 83.7611C278.56 83.5007 278.474 83.1645 278.474 82.7526C278.474 82.3833 278.55 82.0601 278.702 81.7831C278.851 81.5061 279.078 81.2907 279.384 81.1368C279.687 80.9829 280.07 80.906 280.534 80.906L284 80.906L284 81.7441L280.591 81.7441C280.162 81.7441 279.829 81.8553 279.589 82.0779C279.348 82.3004 279.227 82.6058 279.227 82.9941C279.227 83.2616 279.285 83.5007 279.401 83.7114C279.517 83.9197 279.687 84.0843 279.909 84.205C280.132 84.3257 280.402 84.3861 280.719 84.3861ZM278.545 75.1096L284 77.1267L284 77.979L278.545 79.996L278.545 79.0869L282.892 77.5812L282.892 77.5244L278.545 76.0187L278.545 75.1096ZM284 74.0035L278.545 74.0035L278.545 73.1654L284 73.1654L284 74.0035ZM277.636 73.5773C277.636 73.7407 277.581 73.8815 277.469 73.9999C277.358 74.1159 277.224 74.1739 277.068 74.1739C276.912 74.1739 276.778 74.1159 276.667 73.9999C276.556 73.8815 276.5 73.7407 276.5 73.5773C276.5 73.414 276.556 73.2743 276.667 73.1583C276.778 73.0399 276.912 72.9807 277.068 72.9807C277.224 72.9807 277.358 73.0399 277.469 73.1583C277.581 73.2743 277.636 73.414 277.636 73.5773ZM284 71.6304L278.545 71.6304L278.545 70.8208L279.369 70.8208L279.369 70.7639C279.099 70.6645 278.88 70.4846 278.712 70.2242C278.544 69.9637 278.46 69.6702 278.46 69.3435C278.46 69.2819 278.461 69.205 278.464 69.1127C278.466 69.0203 278.47 68.9505 278.474 68.9031L279.327 68.9031C279.32 68.9316 279.309 68.9967 279.295 69.0985C279.278 69.1979 279.27 69.3032 279.27 69.4145C279.27 69.6797 279.326 69.9164 279.437 70.1247C279.546 70.3307 279.697 70.4941 279.891 70.6148C280.083 70.7332 280.302 70.7923 280.548 70.7923L284 70.7923L284 71.6304ZM284.114 65.8598C284.114 66.3522 283.996 66.7843 283.762 67.156C283.528 67.5253 283.2 67.8141 282.778 68.0225C282.357 68.2284 281.865 68.3314 281.301 68.3314C280.733 68.3314 280.237 68.2284 279.813 68.0225C279.389 67.8141 279.06 67.5253 278.826 67.156C278.592 66.7843 278.474 66.3522 278.474 65.8598C278.474 65.3674 278.592 64.9365 278.826 64.5672C279.06 64.1955 279.389 63.9067 279.813 63.7007C280.237 63.4924 280.733 63.3882 281.301 63.3882C281.865 63.3882 282.357 63.4924 282.778 63.7007C283.2 63.9067 283.528 64.1955 283.762 64.5672C283.996 64.9365 284.114 65.3674 284.114 65.8598ZM283.361 65.8598C283.361 65.4858 283.265 65.178 283.073 64.9365C282.881 64.695 282.629 64.5163 282.317 64.4003C282.004 64.2843 281.666 64.2263 281.301 64.2263C280.937 64.2263 280.597 64.2843 280.282 64.4003C279.967 64.5163 279.713 64.695 279.518 64.9365C279.324 65.178 279.227 65.4858 279.227 65.8598C279.227 66.2339 279.324 66.5416 279.518 66.7831C279.713 67.0246 279.967 67.2033 280.282 67.3193C280.597 67.4353 280.937 67.4933 281.301 67.4933C281.666 67.4933 282.004 67.4353 282.317 67.3193C282.629 67.2033 282.881 67.0246 283.073 66.7831C283.265 66.5416 283.361 66.2339 283.361 65.8598ZM280.719 61.2709L284 61.2709L284 62.1089L278.545 62.1089L278.545 61.2993L279.398 61.2993L279.398 61.2282C279.121 61.1004 278.898 60.9063 278.73 60.6459C278.56 60.3854 278.474 60.0493 278.474 59.6373C278.474 59.268 278.55 58.9449 278.702 58.6679C278.851 58.3909 279.078 58.1755 279.384 58.0216C279.687 57.8677 280.07 57.7907 280.534 57.7907L284 57.7907L284 58.6288L280.591 58.6288C280.162 58.6288 279.829 58.7401 279.589 58.9626C279.348 59.1852 279.227 59.4906 279.227 59.8788C279.227 60.1463 279.285 60.3854 279.401 60.5961C279.517 60.8045 279.687 60.969 279.909 61.0898C280.132 61.2105 280.402 61.2709 280.719 61.2709ZM284 56.2593L278.545 56.2593L278.545 55.4497L279.398 55.4497L279.398 55.3786C279.107 55.265 278.88 55.0815 278.719 54.8282C278.556 54.5749 278.474 54.2707 278.474 53.9156C278.474 53.5557 278.556 53.2562 278.719 53.0171C278.88 52.7757 279.107 52.5874 279.398 52.4525L279.398 52.3957C279.116 52.256 278.892 52.0465 278.727 51.7671C278.558 51.4878 278.474 51.1528 278.474 50.7622C278.474 50.2745 278.627 49.8756 278.933 49.5654C279.236 49.2553 279.708 49.1002 280.349 49.1002L284 49.1002L284 49.9383L280.349 49.9383C279.947 49.9383 279.659 50.0484 279.487 50.2686C279.314 50.4887 279.227 50.748 279.227 51.0463C279.227 51.4298 279.343 51.7269 279.575 51.9376C279.805 52.1483 280.096 52.2536 280.449 52.2536L284 52.2536L284 53.1059L280.264 53.1059C279.954 53.1059 279.704 53.2065 279.515 53.4078C279.323 53.609 279.227 53.8682 279.227 54.1855C279.227 54.4033 279.285 54.6069 279.401 54.7963C279.517 54.9833 279.678 55.1348 279.884 55.2508C280.088 55.3644 280.323 55.4213 280.591 55.4213L284 55.4213L284 56.2593ZM284.114 45.281C284.114 45.8066 283.998 46.2599 283.766 46.6411C283.531 47.0199 283.205 47.3122 282.786 47.5182C282.364 47.7218 281.874 47.8236 281.315 47.8236C280.757 47.8236 280.264 47.7218 279.838 47.5182C279.41 47.3122 279.076 47.0258 278.837 46.6588C278.595 46.2895 278.474 45.8586 278.474 45.3662C278.474 45.0821 278.522 44.8016 278.616 44.5246C278.711 44.2476 278.865 43.9955 279.078 43.7682C279.289 43.5409 279.568 43.3598 279.916 43.2249C280.264 43.0899 280.693 43.0225 281.202 43.0225L281.557 43.0225L281.557 47.227L280.832 47.227L280.832 43.8747C280.525 43.8747 280.25 43.9363 280.009 44.0594C279.767 44.1801 279.576 44.353 279.437 44.5779C279.297 44.8004 279.227 45.0632 279.227 45.3662C279.227 45.7 279.31 45.9888 279.476 46.2327C279.639 46.4742 279.852 46.66 280.115 46.7902C280.378 46.9204 280.66 46.9855 280.96 46.9855L281.443 46.9855C281.855 46.9855 282.204 46.9145 282.491 46.7725C282.775 46.628 282.991 46.428 283.141 46.1723C283.287 45.9166 283.361 45.6195 283.361 45.281C283.361 45.0608 283.33 44.8619 283.268 44.6844C283.205 44.5045 283.11 44.3494 282.984 44.2192C282.857 44.089 282.698 43.9884 282.509 43.9173L282.736 43.1077C283.01 43.1929 283.252 43.3361 283.46 43.5374C283.666 43.7386 283.827 43.9872 283.943 44.2831C284.057 44.579 284.114 44.9117 284.114 45.281ZM280.719 40.9095L284 40.9095L284 41.7476L278.545 41.7476L278.545 40.9379L279.398 40.9379L279.398 40.8669C279.121 40.7391 278.898 40.545 278.73 40.2845C278.56 40.0241 278.474 39.6879 278.474 39.276C278.474 38.9067 278.55 38.5835 278.702 38.3066C278.851 38.0296 279.078 37.8141 279.384 37.6602C279.687 37.5064 280.07 37.4294 280.534 37.4294L284 37.4294L284 38.2675L280.591 38.2675C280.162 38.2675 279.829 38.3788 279.589 38.6013C279.348 38.8238 279.227 39.1292 279.227 39.5175C279.227 39.785 279.285 40.0241 279.401 40.2348C279.517 40.4432 279.687 40.6077 279.909 40.7284C280.132 40.8492 280.402 40.9095 280.719 40.9095ZM278.545 33.5258L279.256 33.5258L279.256 36.3525L278.545 36.3525L278.545 33.5258ZM277.239 35.5287L277.239 34.6906L282.437 34.6906C282.674 34.6906 282.852 34.6563 282.97 34.5876C283.086 34.5166 283.164 34.4266 283.205 34.3177C283.242 34.2065 283.261 34.0893 283.261 33.9662C283.261 33.8738 283.257 33.7981 283.247 33.7389C283.235 33.6797 283.226 33.6324 283.219 33.5969L283.972 33.4264C283.993 33.4832 284.014 33.5625 284.036 33.6643C284.059 33.7661 284.071 33.8952 284.071 34.0514C284.071 34.2881 284.02 34.5202 283.918 34.7474C283.817 34.9723 283.661 35.1594 283.453 35.3085C283.245 35.4553 282.982 35.5287 282.665 35.5287L277.239 35.5287Z" fill="black"/>
<circle id="Ellipse 1_5" cx="274" cy="113" r="12.5" fill="#FBD7AF" stroke="#8A8A8A"/>
<path id="5" d="M273.841 119.159C273.174 119.159 272.574 119.027 272.04 118.761C271.506 118.496 271.078 118.133 270.756 117.67C270.434 117.208 270.258 116.682 270.227 116.091H271.591C271.644 116.617 271.883 117.053 272.307 117.398C272.735 117.739 273.246 117.909 273.841 117.909C274.318 117.909 274.742 117.797 275.114 117.574C275.489 117.35 275.782 117.044 275.994 116.653C276.21 116.259 276.318 115.814 276.318 115.318C276.318 114.811 276.206 114.358 275.983 113.96C275.763 113.559 275.46 113.242 275.074 113.011C274.688 112.78 274.246 112.663 273.75 112.659C273.394 112.655 273.028 112.71 272.653 112.824C272.278 112.934 271.97 113.076 271.727 113.25L270.409 113.091L271.114 107.364H277.159V108.614H272.295L271.886 112.045H271.955C272.193 111.856 272.492 111.699 272.852 111.574C273.212 111.449 273.587 111.386 273.977 111.386C274.689 111.386 275.324 111.557 275.881 111.898C276.441 112.235 276.881 112.697 277.199 113.284C277.521 113.871 277.682 114.542 277.682 115.295C277.682 116.038 277.515 116.701 277.182 117.284C276.852 117.864 276.398 118.322 275.818 118.659C275.239 118.992 274.58 119.159 273.841 119.159Z" fill="#8A8A8A"/>
</g>
<g id="Pillar 6">
<rect id="Rectangle 268_7" x="310" y="107" width="50" height="6" fill="#CCD6EA"/>
<path id="Rectangle 270_6" d="M310 12H360V15L345.5 18H325L310 15V12Z" fill="#CCD6EA"/>
<path id="Rectangle 269_6" d="M325 18H345.5L350 107H320L325 18Z" fill="#CCD6EA"/>
<path id="Automation &#38; Orchestration" d="M333 93.0544L333 93.9777L325.727 91.3073L325.727 90.3982L333 87.7277L333 88.651L326.878 90.8243L326.878 90.8811L333 93.0544ZM330.159 92.7135L330.159 88.9919L330.94 88.9919L330.94 92.7135L330.159 92.7135ZM330.77 83.271L327.545 83.271L327.545 82.433L333 82.433L333 83.271L332.077 83.271L332.077 83.3279C332.354 83.4557 332.589 83.6546 332.783 83.9244C332.975 84.1943 333.071 84.5352 333.071 84.9472C333.071 85.2881 332.996 85.5911 332.847 85.8563C332.696 86.1214 332.469 86.3298 332.165 86.4813C331.86 86.6328 331.475 86.7085 331.011 86.7085L327.545 86.7085L327.545 85.8705L330.955 85.8705C331.352 85.8705 331.67 85.7592 331.906 85.5367C332.143 85.3118 332.261 85.0253 332.261 84.6773C332.261 84.469 332.208 84.2571 332.102 84.0416C331.995 83.8238 331.832 83.6415 331.612 83.4948C331.391 83.3456 331.111 83.271 330.77 83.271ZM327.545 78.5258L328.256 78.5258L328.256 81.3525L327.545 81.3525L327.545 78.5258ZM326.239 80.5287L326.239 79.6906L331.437 79.6906C331.674 79.6906 331.852 79.6563 331.97 79.5876C332.086 79.5166 332.164 79.4266 332.205 79.3177C332.242 79.2065 332.261 79.0893 332.261 78.9662C332.261 78.8738 332.257 78.7981 332.247 78.7389C332.235 78.6797 332.226 78.6324 332.219 78.5969L332.972 78.4264C332.993 78.4832 333.014 78.5625 333.036 78.6643C333.059 78.7661 333.071 78.8952 333.071 79.0514C333.071 79.2881 333.02 79.5202 332.918 79.7474C332.817 79.9723 332.661 80.1594 332.453 80.3085C332.245 80.4553 331.982 80.5287 331.665 80.5287L326.239 80.5287ZM333.114 75.1079C333.114 75.6003 332.996 76.0323 332.762 76.404C332.528 76.7733 332.2 77.0622 331.778 77.2705C331.357 77.4765 330.865 77.5795 330.301 77.5795C329.733 77.5795 329.237 77.4765 328.813 77.2705C328.389 77.0622 328.06 76.7733 327.826 76.404C327.592 76.0323 327.474 75.6003 327.474 75.1079C327.474 74.6154 327.592 74.1846 327.826 73.8153C328.06 73.4436 328.389 73.1547 328.813 72.9488C329.237 72.7404 329.733 72.6363 330.301 72.6363C330.865 72.6363 331.357 72.7404 331.778 72.9488C332.2 73.1547 332.528 73.4436 332.762 73.8153C332.996 74.1846 333.114 74.6154 333.114 75.1079ZM332.361 75.1079C332.361 74.7338 332.265 74.426 332.073 74.1846C331.881 73.9431 331.629 73.7644 331.317 73.6483C331.004 73.5323 330.666 73.4743 330.301 73.4743C329.937 73.4743 329.597 73.5323 329.282 73.6483C328.967 73.7644 328.713 73.9431 328.518 74.1846C328.324 74.426 328.227 74.7338 328.227 75.1079C328.227 75.4819 328.324 75.7897 328.518 76.0312C328.713 76.2726 328.967 76.4514 329.282 76.5674C329.597 76.6834 329.937 76.7414 330.301 76.7414C330.666 76.7414 331.004 76.6834 331.317 76.5674C331.629 76.4514 331.881 76.2726 332.073 76.0312C332.265 75.7897 332.361 75.4819 332.361 75.1079ZM333 71.357L327.545 71.357L327.545 70.5473L328.398 70.5473L328.398 70.4763C328.107 70.3627 327.88 70.1792 327.719 69.9259C327.556 69.6726 327.474 69.3683 327.474 69.0132C327.474 68.6534 327.556 68.3539 327.719 68.1148C327.88 67.8733 328.107 67.6851 328.398 67.5502L328.398 67.4933C328.116 67.3537 327.892 67.1441 327.727 66.8648C327.558 66.5854 327.474 66.2504 327.474 65.8598C327.474 65.3721 327.627 64.9732 327.933 64.6631C328.236 64.353 328.708 64.1979 329.349 64.1979L333 64.1979L333 65.036L329.349 65.036C328.947 65.036 328.659 65.146 328.487 65.3662C328.314 65.5864 328.227 65.8456 328.227 66.1439C328.227 66.5274 328.343 66.8245 328.575 67.0352C328.805 67.2459 329.096 67.3513 329.449 67.3513L333 67.3513L333 68.2036L329.264 68.2036C328.954 68.2036 328.704 68.3042 328.515 68.5054C328.323 68.7066 328.227 68.9659 328.227 69.2831C328.227 69.5009 328.285 69.7045 328.401 69.8939C328.517 70.0809 328.678 70.2325 328.884 70.3485C329.088 70.4621 329.323 70.5189 329.591 70.5189L333 70.5189L333 71.357ZM333.128 61.0605C333.128 61.4061 333.063 61.7198 332.933 62.0015C332.8 62.2832 332.609 62.507 332.361 62.6727C332.11 62.8384 331.807 62.9213 331.452 62.9213C331.139 62.9213 330.886 62.8597 330.692 62.7366C330.495 62.6135 330.341 62.449 330.23 62.243C330.119 62.037 330.036 61.8097 329.982 61.5612C329.925 61.3102 329.88 61.0581 329.847 60.8048C329.804 60.4733 329.772 60.2046 329.751 59.9987C329.727 59.7903 329.688 59.6388 329.634 59.5441C329.579 59.4471 329.484 59.3985 329.349 59.3985L329.321 59.3985C328.971 59.3985 328.698 59.4944 328.504 59.6862C328.31 59.8756 328.213 60.1632 328.213 60.5491C328.213 60.9492 328.301 61.2629 328.476 61.4901C328.651 61.7174 328.838 61.8772 329.037 61.9695L328.753 62.765C328.421 62.623 328.163 62.4336 327.979 62.1968C327.792 61.9577 327.661 61.6973 327.588 61.4156C327.512 61.1315 327.474 60.8521 327.474 60.5775C327.474 60.4023 327.496 60.2011 327.538 59.9738C327.579 59.7442 327.663 59.5228 327.79 59.3097C327.918 59.0943 328.111 58.9156 328.369 58.7735C328.627 58.6315 328.973 58.5605 329.406 58.5605L333 58.5605L333 59.3985L332.261 59.3985L332.261 59.4411C332.38 59.498 332.506 59.5927 332.641 59.7252C332.776 59.8578 332.891 60.0342 332.986 60.2543C333.08 60.4745 333.128 60.7432 333.128 61.0605ZM332.375 60.9326C332.375 60.6012 332.31 60.3218 332.18 60.0945C332.049 59.8649 331.881 59.6921 331.675 59.5761C331.469 59.4577 331.253 59.3985 331.026 59.3985L330.259 59.3985C330.301 59.434 330.34 59.5122 330.376 59.6329C330.409 59.7513 330.438 59.8886 330.464 60.0448C330.488 60.1987 330.509 60.349 330.528 60.4958C330.545 60.6402 330.559 60.7574 330.571 60.8474C330.599 61.0652 330.646 61.2688 330.71 61.4582C330.771 61.6452 330.865 61.7967 330.99 61.9127C331.113 62.0264 331.281 62.0832 331.494 62.0832C331.786 62.0832 332.006 61.9755 332.155 61.76C332.302 61.5422 332.375 61.2664 332.375 60.9326ZM327.545 54.6586L328.256 54.6586L328.256 57.4854L327.545 57.4854L327.545 54.6586ZM326.239 56.6615L326.239 55.8234L331.437 55.8234C331.674 55.8234 331.852 55.7891 331.97 55.7204C332.086 55.6494 332.164 55.5595 332.205 55.4505C332.242 55.3393 332.261 55.2221 332.261 55.099C332.261 55.0067 332.257 54.9309 332.247 54.8717C332.235 54.8125 332.226 54.7652 332.219 54.7297L332.972 54.5592C332.993 54.616 333.014 54.6953 333.036 54.7971C333.059 54.8989 333.071 55.028 333.071 55.1842C333.071 55.421 333.02 55.653 332.918 55.8802C332.817 56.1051 332.661 56.2922 332.453 56.4413C332.245 56.5881 331.982 56.6615 331.665 56.6615L326.239 56.6615ZM333 53.398L327.545 53.398L327.545 52.5599L333 52.5599L333 53.398ZM326.636 52.9719C326.636 53.1352 326.581 53.2761 326.469 53.3944C326.358 53.5104 326.224 53.5684 326.068 53.5684C325.912 53.5684 325.778 53.5104 325.667 53.3944C325.556 53.2761 325.5 53.1352 325.5 52.9719C325.5 52.8085 325.556 52.6688 325.667 52.5528C325.778 52.4345 325.912 52.3753 326.068 52.3753C326.224 52.3753 326.358 52.4345 326.469 52.5528C326.581 52.6688 326.636 52.8085 326.636 52.9719ZM333.114 48.809C333.114 49.3015 332.996 49.7335 332.762 50.1052C332.528 50.4745 332.2 50.7633 331.778 50.9717C331.357 51.1776 330.865 51.2806 330.301 51.2806C329.733 51.2806 329.237 51.1776 328.813 50.9717C328.389 50.7633 328.06 50.4745 327.826 50.1052C327.592 49.7335 327.474 49.3015 327.474 48.809C327.474 48.3166 327.592 47.8857 327.826 47.5164C328.06 47.1447 328.389 46.8559 328.813 46.6499C329.237 46.4416 329.733 46.3374 330.301 46.3374C330.865 46.3374 331.357 46.4416 331.778 46.6499C332.2 46.8559 332.528 47.1447 332.762 47.5164C332.996 47.8857 333.114 48.3166 333.114 48.809ZM332.361 48.809C332.361 48.435 332.265 48.1272 332.073 47.8857C331.881 47.6443 331.629 47.4655 331.317 47.3495C331.004 47.2335 330.666 47.1755 330.301 47.1755C329.937 47.1755 329.597 47.2335 329.282 47.3495C328.967 47.4655 328.713 47.6443 328.518 47.8857C328.324 48.1272 328.227 48.435 328.227 48.809C328.227 49.1831 328.324 49.4909 328.518 49.7323C328.713 49.9738 328.967 50.1526 329.282 50.2686C329.597 50.3846 329.937 50.4426 330.301 50.4426C330.666 50.4426 331.004 50.3846 331.317 50.2686C331.629 50.1526 331.881 49.9738 332.073 49.7323C332.265 49.4909 332.361 49.1831 332.361 48.809ZM329.719 44.2201L333 44.2201L333 45.0581L327.545 45.0581L327.545 44.2485L328.398 44.2485L328.398 44.1775C328.121 44.0496 327.898 43.8555 327.73 43.5951C327.56 43.3347 327.474 42.9985 327.474 42.5866C327.474 42.2172 327.55 41.8941 327.702 41.6171C327.851 41.3401 328.078 41.1247 328.384 40.9708C328.687 40.8169 329.07 40.74 329.534 40.74L333 40.74L333 41.578L329.591 41.578C329.162 41.578 328.829 41.6893 328.589 41.9118C328.348 42.1344 328.227 42.4398 328.227 42.828C328.227 43.0956 328.285 43.3347 328.401 43.5454C328.517 43.7537 328.687 43.9182 328.909 44.039C329.132 44.1597 329.402 44.2201 329.719 44.2201ZM333.099 34.3364C333.099 34.8146 333.012 35.2265 332.837 35.5722C332.661 35.9178 332.421 36.1842 332.116 36.3712C331.81 36.5582 331.461 36.6517 331.068 36.6517C330.765 36.6517 330.496 36.5878 330.262 36.46C330.025 36.3298 329.806 36.151 329.605 35.9237C329.402 35.6941 329.198 35.4301 328.994 35.1318L328.213 34.0807C328.078 33.8747 327.934 33.7102 327.78 33.5871C327.626 33.4616 327.425 33.3989 327.176 33.3989C326.991 33.3989 326.813 33.4806 326.64 33.6439C326.467 33.8049 326.381 34.0168 326.381 34.2796C326.381 34.4642 326.428 34.6276 326.523 34.7696C326.615 34.9093 326.733 35.0194 326.878 35.0999C327.02 35.178 327.167 35.2171 327.318 35.2171C327.489 35.2171 327.661 35.1709 327.837 35.0786C328.009 34.9839 328.187 34.8643 328.369 34.7199C328.549 34.5731 328.734 34.4216 328.923 34.2654L333 30.9273L333 31.9358L329.676 34.6915C329.368 34.9472 329.089 35.1792 328.838 35.3875C328.587 35.5959 328.34 35.7616 328.096 35.8847C327.852 36.0078 327.588 36.0693 327.304 36.0693C326.977 36.0693 326.691 35.9971 326.445 35.8527C326.196 35.7059 326.003 35.5012 325.866 35.2384C325.726 34.9732 325.656 34.6631 325.656 34.308C325.656 33.9434 325.727 33.6297 325.869 33.3669C326.009 33.1041 326.195 32.9017 326.427 32.7597C326.656 32.6176 326.906 32.5466 327.176 32.5466C327.524 32.5466 327.826 32.633 328.082 32.8058C328.337 32.9787 328.575 33.2142 328.795 33.5125L329.875 34.9614C330.116 35.2881 330.351 35.5094 330.578 35.6254C330.805 35.7414 330.969 35.7994 331.068 35.7994C331.295 35.7994 331.507 35.7403 331.704 35.6219C331.9 35.5035 332.059 35.3366 332.18 35.1212C332.3 34.9057 332.361 34.6536 332.361 34.3648C332.361 34.0902 332.303 33.8226 332.187 33.5622C332.068 33.3018 331.898 33.0663 331.675 32.8556C331.453 32.6425 331.185 32.4744 330.873 32.3513C330.56 32.2258 330.209 32.1631 329.818 32.1631L329.818 31.3534C330.301 31.3534 330.695 31.4091 331.001 31.5203C331.306 31.6316 331.545 31.7571 331.718 31.8967C331.891 32.0364 332.02 32.1489 332.105 32.2341C332.141 32.2625 332.176 32.2886 332.212 32.3122C332.247 32.3359 332.283 32.3619 332.318 32.3904C332.581 32.6247 332.777 32.9207 332.908 33.2781C333.036 33.6356 333.099 33.9884 333.099 34.3364ZM341.364 87.7437C342.131 87.7437 342.794 87.8822 343.352 88.1592C343.911 88.4362 344.342 88.8161 344.645 89.2991C344.948 89.782 345.099 90.3337 345.099 90.9539C345.099 91.5742 344.948 92.1258 344.645 92.6088C344.342 93.0917 343.911 93.4717 343.352 93.7487C342.794 94.0257 342.131 94.1642 341.364 94.1642C340.597 94.1642 339.934 94.0257 339.375 93.7487C338.816 93.4717 338.385 93.0917 338.082 92.6088C337.779 92.1258 337.628 91.5742 337.628 90.9539C337.628 90.3337 337.779 89.782 338.082 89.2991C338.385 88.8161 338.816 88.4362 339.375 88.1592C339.934 87.8822 340.597 87.7437 341.364 87.7437ZM341.364 88.596C340.734 88.596 340.202 88.7013 339.769 88.912C339.336 89.1204 339.008 89.4033 338.786 89.7607C338.563 90.1159 338.452 90.5136 338.452 90.9539C338.452 91.3943 338.563 91.7932 338.786 92.1507C339.008 92.5058 339.336 92.7887 339.769 92.9994C340.202 93.2077 340.734 93.3119 341.364 93.3119C341.993 93.3119 342.525 93.2077 342.958 92.9994C343.391 92.7887 343.719 92.5058 343.942 92.1507C344.164 91.7932 344.276 91.3943 344.276 90.9539C344.276 90.5136 344.164 90.1159 343.942 89.7607C343.719 89.4033 343.391 89.1204 342.958 88.912C342.525 88.7013 341.993 88.596 341.364 88.596ZM345 86.3765L339.545 86.3765L339.545 85.5668L340.369 85.5668L340.369 85.51C340.099 85.4106 339.88 85.2307 339.712 84.9703C339.544 84.7098 339.46 84.4163 339.46 84.0896C339.46 84.028 339.461 83.9511 339.464 83.8588C339.466 83.7664 339.47 83.6966 339.474 83.6492L340.327 83.6492C340.32 83.6776 340.309 83.7427 340.295 83.8445C340.278 83.944 340.27 84.0493 340.27 84.1606C340.27 84.4258 340.326 84.6625 340.437 84.8708C340.546 85.0768 340.697 85.2401 340.891 85.3609C341.083 85.4793 341.302 85.5384 341.548 85.5384L345 85.5384L345 86.3765ZM345.114 80.6059C345.114 81.1173 344.993 81.5576 344.751 81.9269C344.51 82.2963 344.177 82.5803 343.754 82.7792C343.33 82.9781 342.846 83.0775 342.301 83.0775C341.747 83.0775 341.258 82.9757 340.835 82.7721C340.408 82.5661 340.076 82.2797 339.837 81.9127C339.595 81.5434 339.474 81.1125 339.474 80.6201C339.474 80.2366 339.545 79.8909 339.687 79.5832C339.83 79.2754 340.028 79.0233 340.284 78.8268C340.54 78.6303 340.838 78.5084 341.179 78.461L341.179 79.2991C340.93 79.363 340.71 79.5051 340.518 79.7252C340.324 79.943 340.227 80.2366 340.227 80.6059C340.227 80.9326 340.312 81.2191 340.483 81.4653C340.651 81.7091 340.889 81.8997 341.197 82.037C341.502 82.172 341.861 82.2394 342.273 82.2394C342.694 82.2394 343.061 82.1731 343.374 82.0406C343.686 81.9056 343.929 81.7162 344.102 81.4724C344.274 81.2262 344.361 80.9374 344.361 80.6059C344.361 80.3881 344.323 80.1904 344.247 80.0129C344.171 79.8353 344.062 79.685 343.92 79.5619C343.778 79.4388 343.608 79.3512 343.409 79.2991L343.409 78.461C343.731 78.5084 344.021 78.6256 344.279 78.8126C344.535 78.9972 344.738 79.2423 344.89 79.5477C345.039 79.8507 345.114 80.2034 345.114 80.6059ZM341.719 76.3978L345 76.3978L345 77.2359L337.727 77.2359L337.727 76.3978L340.398 76.3978L340.398 76.3268C340.116 76.199 339.892 76.0072 339.727 75.7515C339.558 75.4935 339.474 75.1502 339.474 74.7217C339.474 74.35 339.549 74.0245 339.698 73.7451C339.845 73.4658 340.071 73.2491 340.376 73.0953C340.679 72.939 341.065 72.8609 341.534 72.8609L345 72.8609L345 73.699L341.591 73.699C341.158 73.699 340.823 73.8114 340.586 74.0363C340.347 74.2588 340.227 74.5678 340.227 74.9632C340.227 75.2378 340.285 75.484 340.401 75.7018C340.517 75.9172 340.687 76.0877 340.909 76.2132C341.132 76.3363 341.402 76.3978 341.719 76.3978ZM345.114 69.0407C345.114 69.5663 344.998 70.0197 344.766 70.4008C344.531 70.7796 344.205 71.072 343.786 71.278C343.364 71.4816 342.874 71.5834 342.315 71.5834C341.757 71.5834 341.264 71.4816 340.838 71.278C340.41 71.072 340.076 70.7855 339.837 70.4186C339.595 70.0493 339.474 69.6184 339.474 69.126C339.474 68.8419 339.522 68.5613 339.616 68.2844C339.711 68.0074 339.865 67.7552 340.078 67.528C340.289 67.3007 340.568 67.1196 340.916 66.9846C341.264 66.8497 341.693 66.7822 342.202 66.7822L342.557 66.7822L342.557 70.9868L341.832 70.9868L341.832 67.6345C341.525 67.6345 341.25 67.6961 341.009 67.8192C340.767 67.9399 340.576 68.1127 340.437 68.3376C340.297 68.5602 340.227 68.8229 340.227 69.126C340.227 69.4598 340.31 69.7486 340.476 69.9925C340.639 70.2339 340.852 70.4198 341.115 70.55C341.378 70.6802 341.66 70.7453 341.96 70.7453L342.443 70.7453C342.855 70.7453 343.204 70.6743 343.491 70.5322C343.775 70.3878 343.991 70.1878 344.141 69.9321C344.287 69.6764 344.361 69.3793 344.361 69.0407C344.361 68.8206 344.33 68.6217 344.268 68.4442C344.205 68.2642 344.11 68.1092 343.984 67.979C343.857 67.8488 343.698 67.7481 343.509 67.6771L343.736 66.8675C344.01 66.9527 344.252 67.0959 344.46 67.2971C344.666 67.4984 344.827 67.747 344.943 68.0429C345.057 68.3388 345.114 68.6714 345.114 69.0407ZM340.767 61.6437L340.98 62.3966C340.855 62.4439 340.733 62.5138 340.614 62.6061C340.494 62.6961 340.394 62.8192 340.316 62.9754C340.238 63.1317 340.199 63.3317 340.199 63.5755C340.199 63.9094 340.276 64.1875 340.43 64.4101C340.581 64.6302 340.774 64.7403 341.009 64.7403C341.217 64.7403 341.381 64.6646 341.502 64.513C341.623 64.3615 341.723 64.1248 341.804 63.8028L342.003 62.9932C342.121 62.5055 342.302 62.1421 342.546 61.903C342.788 61.6639 343.099 61.5443 343.48 61.5443C343.793 61.5443 344.072 61.6343 344.318 61.8142C344.564 61.9917 344.759 62.2403 344.901 62.5599C345.043 62.8795 345.114 63.2512 345.114 63.675C345.114 64.2313 344.993 64.6918 344.751 65.0564C344.51 65.421 344.157 65.6518 343.693 65.7488L343.494 64.9534C343.788 64.8776 344.008 64.7344 344.155 64.5237C344.302 64.3106 344.375 64.0325 344.375 63.6892C344.375 63.2986 344.292 62.9884 344.126 62.7588C343.958 62.5268 343.757 62.4108 343.523 62.4108C343.333 62.4108 343.175 62.4771 343.047 62.6096C342.917 62.7422 342.82 62.9458 342.756 63.2204L342.543 64.1295C342.424 64.6291 342.241 64.996 341.992 65.2304C341.741 65.4624 341.428 65.5784 341.051 65.5784C340.743 65.5784 340.471 65.492 340.234 65.3192C339.998 65.144 339.812 64.906 339.677 64.6054C339.542 64.3023 339.474 63.9591 339.474 63.5755C339.474 63.0358 339.593 62.612 339.83 62.3042C340.066 61.9941 340.379 61.7739 340.767 61.6437ZM339.545 57.9106L340.256 57.9106L340.256 60.7373L339.545 60.7373L339.545 57.9106ZM338.239 59.9134L338.239 59.0754L343.437 59.0754C343.674 59.0754 343.852 59.041 343.97 58.9724C344.086 58.9014 344.164 58.8114 344.205 58.7025C344.242 58.5912 344.261 58.474 344.261 58.3509C344.261 58.2586 344.257 58.1829 344.247 58.1237C344.235 58.0645 344.226 58.0171 344.219 57.9816L344.972 57.8112C344.993 57.868 345.014 57.9473 345.036 58.0491C345.059 58.1509 345.071 58.2799 345.071 58.4362C345.071 58.6729 345.02 58.9049 344.918 59.1322C344.817 59.3571 344.661 59.5441 344.453 59.6933C344.245 59.84 343.982 59.9134 343.665 59.9134L338.239 59.9134ZM345 56.6499L339.545 56.6499L339.545 55.8403L340.369 55.8403L340.369 55.7835C340.099 55.684 339.88 55.5041 339.712 55.2437C339.544 54.9833 339.46 54.6897 339.46 54.363C339.46 54.3015 339.461 54.2245 339.464 54.1322C339.466 54.0399 339.47 53.97 339.474 53.9227L340.327 53.9227C340.32 53.9511 340.309 54.0162 340.295 54.118C340.278 54.2174 340.27 54.3228 340.27 54.434C340.27 54.6992 340.326 54.9359 340.437 55.1443C340.546 55.3502 340.697 55.5136 340.891 55.6343C341.083 55.7527 341.302 55.8119 341.548 55.8119L345 55.8119L345 56.6499ZM345.128 51.3241C345.128 51.6698 345.063 51.9835 344.933 52.2652C344.8 52.5469 344.609 52.7706 344.361 52.9363C344.11 53.1021 343.807 53.1849 343.452 53.1849C343.139 53.1849 342.886 53.1234 342.692 53.0003C342.495 52.8772 342.341 52.7126 342.23 52.5067C342.119 52.3007 342.036 52.0734 341.982 51.8248C341.925 51.5739 341.88 51.3218 341.847 51.0684C341.804 50.737 341.772 50.4683 341.751 50.2623C341.727 50.054 341.688 49.9025 341.634 49.8078C341.579 49.7107 341.484 49.6622 341.349 49.6622L341.321 49.6622C340.971 49.6622 340.698 49.7581 340.504 49.9498C340.31 50.1392 340.213 50.4269 340.213 50.8128C340.213 51.2129 340.301 51.5265 340.476 51.7538C340.651 51.9811 340.838 52.1409 341.037 52.2332L340.753 53.0287C340.421 52.8866 340.163 52.6972 339.979 52.4605C339.792 52.2214 339.661 51.961 339.588 51.6792C339.512 51.3952 339.474 51.1158 339.474 50.8412C339.474 50.666 339.496 50.4648 339.538 50.2375C339.579 50.0078 339.663 49.7865 339.79 49.5734C339.918 49.358 340.111 49.1792 340.369 49.0372C340.627 48.8952 340.973 48.8241 341.406 48.8241L345 48.8241L345 49.6622L344.261 49.6622L344.261 49.7048C344.38 49.7616 344.506 49.8563 344.641 49.9889C344.776 50.1215 344.891 50.2979 344.986 50.518C345.08 50.7382 345.128 51.0069 345.128 51.3241ZM344.375 51.1963C344.375 50.8648 344.31 50.5855 344.18 50.3582C344.049 50.1286 343.881 49.9558 343.675 49.8398C343.469 49.7214 343.253 49.6622 343.026 49.6622L342.259 49.6622C342.301 49.6977 342.34 49.7758 342.376 49.8966C342.409 50.0149 342.438 50.1523 342.464 50.3085C342.488 50.4624 342.509 50.6127 342.528 50.7595C342.545 50.9039 342.559 51.0211 342.571 51.1111C342.599 51.3289 342.646 51.5325 342.71 51.7219C342.771 51.9089 342.865 52.0604 342.99 52.1764C343.113 52.29 343.281 52.3469 343.494 52.3469C343.786 52.3469 344.006 52.2391 344.155 52.0237C344.302 51.8059 344.375 51.5301 344.375 51.1963ZM339.545 44.9223L340.256 44.9223L340.256 47.749L339.545 47.749L339.545 44.9223ZM338.239 46.9252L338.239 46.0871L343.437 46.0871C343.674 46.0871 343.852 46.0528 343.97 45.9841C344.086 45.9131 344.164 45.8231 344.205 45.7142C344.242 45.603 344.261 45.4858 344.261 45.3627C344.261 45.2703 344.257 45.1946 344.247 45.1354C344.235 45.0762 344.226 45.0289 344.219 44.9933L344.972 44.8229C344.993 44.8797 345.014 44.959 345.036 45.0608C345.059 45.1626 345.071 45.2916 345.071 45.4479C345.071 45.6846 345.02 45.9166 344.918 46.1439C344.817 46.3688 344.661 46.5558 344.453 46.705C344.245 46.8518 343.982 46.9252 343.665 46.9252L338.239 46.9252ZM345 43.6617L339.545 43.6617L339.545 42.8236L345 42.8236L345 43.6617ZM338.636 43.2355C338.636 43.3989 338.581 43.5397 338.469 43.6581C338.358 43.7741 338.224 43.8321 338.068 43.8321C337.912 43.8321 337.778 43.7741 337.667 43.6581C337.556 43.5397 337.5 43.3989 337.5 43.2355C337.5 43.0722 337.556 42.9325 337.667 42.8165C337.778 42.6981 337.912 42.6389 338.068 42.6389C338.224 42.6389 338.358 42.6981 338.469 42.8165C338.581 42.9325 338.636 43.0722 338.636 43.2355ZM345.114 39.0727C345.114 39.5651 344.996 39.9972 344.762 40.3689C344.528 40.7382 344.2 41.027 343.778 41.2354C343.357 41.4413 342.865 41.5443 342.301 41.5443C341.733 41.5443 341.237 41.4413 340.813 41.2354C340.389 41.027 340.06 40.7382 339.826 40.3689C339.592 39.9972 339.474 39.5651 339.474 39.0727C339.474 38.5803 339.592 38.1494 339.826 37.7801C340.06 37.4084 340.389 37.1196 340.813 36.9136C341.237 36.7053 341.733 36.6011 342.301 36.6011C342.865 36.6011 343.357 36.7053 343.778 36.9136C344.2 37.1196 344.528 37.4084 344.762 37.7801C344.996 38.1494 345.114 38.5803 345.114 39.0727ZM344.361 39.0727C344.361 38.6987 344.265 38.3909 344.073 38.1494C343.881 37.9079 343.629 37.7292 343.317 37.6132C343.004 37.4972 342.666 37.4392 342.301 37.4392C341.937 37.4392 341.597 37.4972 341.282 37.6132C340.967 37.7292 340.713 37.9079 340.518 38.1494C340.324 38.3909 340.227 38.6987 340.227 39.0727C340.227 39.4468 340.324 39.7545 340.518 39.996C340.713 40.2375 340.967 40.4162 341.282 40.5322C341.597 40.6482 341.937 40.7062 342.301 40.7062C342.666 40.7062 343.004 40.6482 343.317 40.5322C343.629 40.4162 343.881 40.2375 344.073 39.996C344.265 39.7545 344.361 39.4468 344.361 39.0727ZM341.719 34.4838L345 34.4838L345 35.3218L339.545 35.3218L339.545 34.5122L340.398 34.5122L340.398 34.4411C340.121 34.3133 339.898 34.1192 339.73 33.8588C339.56 33.5983 339.474 33.2622 339.474 32.8502C339.474 32.4809 339.55 32.1578 339.702 31.8808C339.851 31.6038 340.078 31.3883 340.384 31.2345C340.687 31.0806 341.07 31.0036 341.534 31.0036L345 31.0036L345 31.8417L341.591 31.8417C341.162 31.8417 340.829 31.953 340.589 32.1755C340.348 32.3981 340.227 32.7034 340.227 33.0917C340.227 33.3592 340.285 33.5983 340.401 33.809C340.517 34.0174 340.687 34.1819 340.909 34.3026C341.132 34.4234 341.402 34.4838 341.719 34.4838Z" fill="black"/>
<circle id="Ellipse 1_6" cx="335" cy="113" r="12.5" fill="#CCD6EA" stroke="#8A8A8A"/>
<path id="6" d="M335.068 119.159C334.591 119.152 334.114 119.061 333.636 118.886C333.159 118.712 332.723 118.419 332.33 118.006C331.936 117.589 331.619 117.027 331.381 116.318C331.142 115.606 331.023 114.712 331.023 113.636C331.023 112.606 331.119 111.693 331.312 110.898C331.506 110.098 331.786 109.426 332.153 108.881C332.521 108.331 332.964 107.915 333.483 107.631C334.006 107.347 334.595 107.205 335.25 107.205C335.902 107.205 336.481 107.335 336.989 107.597C337.5 107.854 337.917 108.214 338.239 108.676C338.561 109.138 338.769 109.67 338.864 110.273H337.477C337.348 109.75 337.098 109.316 336.727 108.972C336.356 108.627 335.864 108.455 335.25 108.455C334.348 108.455 333.638 108.847 333.119 109.631C332.604 110.415 332.345 111.515 332.341 112.932H332.432C332.644 112.61 332.896 112.335 333.188 112.108C333.483 111.877 333.809 111.699 334.165 111.574C334.521 111.449 334.898 111.386 335.295 111.386C335.962 111.386 336.572 111.553 337.125 111.886C337.678 112.216 338.121 112.672 338.455 113.256C338.788 113.835 338.955 114.5 338.955 115.25C338.955 115.97 338.794 116.629 338.472 117.227C338.15 117.822 337.697 118.295 337.114 118.648C336.534 118.996 335.852 119.167 335.068 119.159ZM335.068 117.909C335.545 117.909 335.973 117.79 336.352 117.551C336.735 117.312 337.036 116.992 337.256 116.591C337.479 116.189 337.591 115.742 337.591 115.25C337.591 114.769 337.483 114.331 337.267 113.938C337.055 113.54 336.761 113.223 336.386 112.989C336.015 112.754 335.591 112.636 335.114 112.636C334.754 112.636 334.419 112.708 334.108 112.852C333.797 112.992 333.525 113.186 333.29 113.432C333.059 113.678 332.877 113.96 332.744 114.278C332.612 114.593 332.545 114.924 332.545 115.273C332.545 115.735 332.653 116.167 332.869 116.568C333.089 116.97 333.388 117.294 333.767 117.54C334.15 117.786 334.583 117.909 335.068 117.909Z" fill="#8A8A8A"/>
</g>
<g id="Pillar 7">
<rect id="Rectangle 268_8" x="370" y="107" width="50" height="6" fill="#E1D4FD"/>
<path id="Rectangle 270_7" d="M370 12H420V15L405.5 18H385L370 15V12Z" fill="#E1D4FD"/>
<path id="Rectangle 269_7" d="M385 18H405.5L410 107H380L385 18Z" fill="#E1D4FD"/>
<path id="Visibility &#38; Analytics" d="M385.727 86.4607L391.849 84.3016L391.849 84.2164L385.727 82.0573L385.727 81.134L393 83.8044L393 84.7135L385.727 87.384L385.727 86.4607ZM393 80.1148L387.545 80.1148L387.545 79.2767L393 79.2767L393 80.1148ZM386.636 79.6887C386.636 79.852 386.581 79.9929 386.469 80.1112C386.358 80.2272 386.224 80.2852 386.068 80.2852C385.912 80.2852 385.778 80.2272 385.667 80.1112C385.556 79.9929 385.5 79.852 385.5 79.6887C385.5 79.5253 385.556 79.3856 385.667 79.2696C385.778 79.1512 385.912 79.0921 386.068 79.0921C386.224 79.0921 386.358 79.1512 386.469 79.2696C386.581 79.3856 386.636 79.5253 386.636 79.6887ZM388.767 73.8781L388.98 74.6309C388.855 74.6783 388.733 74.7481 388.614 74.8405C388.494 74.9304 388.394 75.0535 388.316 75.2098C388.238 75.366 388.199 75.5661 388.199 75.8099C388.199 76.1437 388.276 76.4219 388.43 76.6444C388.581 76.8646 388.774 76.9747 389.009 76.9747C389.217 76.9747 389.381 76.8989 389.502 76.7474C389.623 76.5959 389.723 76.3592 389.804 76.0372L390.003 75.2275C390.121 74.7398 390.302 74.3764 390.546 74.1373C390.788 73.8982 391.099 73.7787 391.48 73.7787C391.793 73.7787 392.072 73.8686 392.318 74.0486C392.564 74.2261 392.759 74.4747 392.901 74.7943C393.043 75.1139 393.114 75.4856 393.114 75.9094C393.114 76.4657 392.993 76.9262 392.751 77.2907C392.51 77.6553 392.157 77.8862 391.693 77.9832L391.494 77.1878C391.788 77.112 392.008 76.9688 392.155 76.7581C392.302 76.545 392.375 76.2668 392.375 75.9236C392.375 75.5329 392.292 75.2228 392.126 74.9932C391.958 74.7612 391.757 74.6452 391.523 74.6452C391.333 74.6452 391.175 74.7114 391.047 74.844C390.917 74.9766 390.82 75.1802 390.756 75.4548L390.543 76.3639C390.424 76.8634 390.241 77.2304 389.992 77.4648C389.741 77.6968 389.428 77.8128 389.051 77.8128C388.743 77.8128 388.471 77.7264 388.234 77.5535C387.998 77.3783 387.812 77.1404 387.677 76.8398C387.542 76.5367 387.474 76.1934 387.474 75.8099C387.474 75.2702 387.593 74.8464 387.83 74.5386C388.066 74.2285 388.379 74.0083 388.767 73.8781ZM393 72.5171L387.545 72.5171L387.545 71.6791L393 71.6791L393 72.5171ZM386.636 72.091C386.636 72.2543 386.581 72.3952 386.469 72.5136C386.358 72.6296 386.224 72.6876 386.068 72.6876C385.912 72.6876 385.778 72.6296 385.667 72.5136C385.556 72.3952 385.5 72.2543 385.5 72.091C385.5 71.9276 385.556 71.788 385.667 71.672C385.778 71.5536 385.912 71.4944 386.068 71.4944C386.224 71.4944 386.358 71.5536 386.469 71.672C386.581 71.788 386.636 71.9276 386.636 72.091ZM393 70.0305L385.727 70.0305L385.727 69.1924L388.412 69.1924L388.412 69.1214C388.317 69.0598 388.196 68.9746 388.05 68.8657C387.901 68.7544 387.768 68.5958 387.652 68.3898C387.534 68.1815 387.474 67.8998 387.474 67.5447C387.474 67.0854 387.589 66.6805 387.819 66.3302C388.049 65.9798 388.374 65.7064 388.795 65.5099C389.217 65.3134 389.714 65.2151 390.287 65.2151C390.865 65.2151 391.365 65.3134 391.789 65.5099C392.21 65.7063 392.537 65.9786 392.769 66.3266C392.999 66.6746 393.114 67.0759 393.114 67.5305C393.114 67.8808 393.056 68.1614 392.94 68.3721C392.821 68.5828 392.687 68.7449 392.538 68.8586C392.387 68.9722 392.261 69.0598 392.162 69.1214L392.162 69.2208L393 69.2208L393 70.0305ZM390.273 69.2066C390.685 69.2066 391.048 69.1462 391.363 69.0255C391.675 68.9047 391.92 68.7284 392.098 68.4964C392.273 68.2644 392.361 67.9803 392.361 67.6441C392.361 67.2937 392.268 67.0013 392.084 66.767C391.897 66.5302 391.646 66.3527 391.331 66.2343C391.014 66.1135 390.661 66.0532 390.273 66.0532C389.889 66.0532 389.544 66.1124 389.236 66.2307C388.926 66.3467 388.681 66.5231 388.501 66.7599C388.318 66.9942 388.227 67.289 388.227 67.6441C388.227 67.985 388.314 68.2715 388.487 68.5035C388.657 68.7355 388.896 68.9107 389.204 69.029C389.509 69.1474 389.866 69.2066 390.273 69.2066ZM393 63.9331L387.545 63.9331L387.545 63.0951L393 63.0951L393 63.9331ZM386.636 63.507C386.636 63.6704 386.581 63.8112 386.469 63.9296C386.358 64.0456 386.224 64.1036 386.068 64.1036C385.912 64.1036 385.778 64.0456 385.667 63.9296C385.556 63.8112 385.5 63.6704 385.5 63.507C385.5 63.3437 385.556 63.204 385.667 63.088C385.778 62.9696 385.912 62.9104 386.068 62.9104C386.224 62.9104 386.358 62.9696 386.469 63.088C386.581 63.204 386.636 63.3437 386.636 63.507ZM385.727 60.722L393 60.722L393 61.5601L385.727 61.5601L385.727 60.722ZM393 59.1871L387.545 59.1871L387.545 58.349L393 58.349L393 59.1871ZM386.636 58.7609C386.636 58.9243 386.581 59.0651 386.469 59.1835C386.358 59.2995 386.224 59.3575 386.068 59.3575C385.912 59.3575 385.778 59.2995 385.667 59.1835C385.556 59.0651 385.5 58.9243 385.5 58.7609C385.5 58.5976 385.556 58.4579 385.667 58.3419C385.778 58.2235 385.912 58.1643 386.068 58.1643C386.224 58.1643 386.358 58.2235 386.469 58.3419C386.581 58.4579 386.636 58.5976 386.636 58.7609ZM387.545 54.4418L388.256 54.4418L388.256 57.2686L387.545 57.2686L387.545 54.4418ZM386.239 56.4447L386.239 55.6066L391.437 55.6066C391.674 55.6066 391.852 55.5723 391.97 55.5036C392.086 55.4326 392.164 55.3427 392.205 55.2338C392.242 55.1225 392.261 55.0053 392.261 54.8822C392.261 54.7899 392.257 54.7141 392.247 54.6549C392.235 54.5957 392.226 54.5484 392.219 54.5129L392.972 54.3424C392.993 54.3992 393.014 54.4785 393.036 54.5803C393.059 54.6821 393.071 54.8112 393.071 54.9674C393.071 55.2042 393.02 55.4362 392.918 55.6634C392.817 55.8883 392.661 56.0754 392.453 56.2245C392.245 56.3713 391.982 56.4447 391.665 56.4447L386.239 56.4447ZM395.045 52.6414C395.045 52.7835 395.034 52.9101 395.01 53.0214C394.989 53.1327 394.967 53.2096 394.946 53.2522L394.207 53.0392C394.259 52.8356 394.278 52.6556 394.264 52.4994C394.25 52.3431 394.18 52.2046 394.055 52.0839C393.932 51.9608 393.732 51.8483 393.455 51.7465L393.028 51.5903L387.545 53.6073L387.545 52.6982L391.892 51.1926L391.892 51.1357L387.545 49.6301L387.545 48.721L393.795 51.0363C394.077 51.1405 394.31 51.2695 394.495 51.4234C394.682 51.5773 394.821 51.756 394.911 51.9596C395 52.1608 395.045 52.3881 395.045 52.6414ZM393.099 42.7426C393.099 43.2209 393.012 43.6328 392.837 43.9784C392.661 44.3241 392.421 44.5904 392.116 44.7774C391.81 44.9645 391.461 45.058 391.068 45.058C390.765 45.058 390.496 44.9941 390.262 44.8662C390.025 44.736 389.806 44.5573 389.605 44.33C389.402 44.1003 389.198 43.8364 388.994 43.5381L388.213 42.4869C388.078 42.281 387.934 42.1164 387.78 41.9933C387.626 41.8679 387.425 41.8051 387.176 41.8051C386.991 41.8051 386.813 41.8868 386.64 42.0502C386.467 42.2111 386.381 42.423 386.381 42.6858C386.381 42.8705 386.428 43.0338 386.523 43.1759C386.615 43.3155 386.733 43.4256 386.878 43.5061C387.02 43.5843 387.167 43.6233 387.318 43.6233C387.489 43.6233 387.661 43.5771 387.837 43.4848C388.009 43.3901 388.187 43.2706 388.369 43.1262C388.549 42.9794 388.734 42.8279 388.923 42.6716L393 39.3335L393 40.3421L389.676 43.0977C389.368 43.3534 389.089 43.5854 388.838 43.7938C388.587 44.0021 388.34 44.1678 388.096 44.2909C387.852 44.414 387.588 44.4756 387.304 44.4756C386.977 44.4756 386.691 44.4034 386.445 44.259C386.196 44.1122 386.003 43.9074 385.866 43.6446C385.726 43.3795 385.656 43.0693 385.656 42.7142C385.656 42.3496 385.727 42.036 385.869 41.7732C386.009 41.5104 386.195 41.308 386.427 41.1659C386.656 41.0239 386.906 40.9529 387.176 40.9529C387.524 40.9529 387.826 41.0393 388.082 41.2121C388.337 41.3849 388.575 41.6205 388.795 41.9188L389.875 43.3676C390.116 43.6943 390.351 43.9157 390.578 44.0317C390.805 44.1477 390.969 44.2057 391.068 44.2057C391.295 44.2057 391.507 44.1465 391.704 44.0281C391.9 43.9098 392.059 43.7429 392.18 43.5274C392.3 43.312 392.361 43.0599 392.361 42.771C392.361 42.4964 392.303 42.2289 392.187 41.9685C392.068 41.7081 391.898 41.4725 391.675 41.2618C391.453 41.0487 391.185 40.8807 390.873 40.7575C390.56 40.6321 390.209 40.5693 389.818 40.5693L389.818 39.7597C390.301 39.7597 390.695 39.8153 391.001 39.9266C391.306 40.0378 391.545 40.1633 391.718 40.303C391.891 40.4427 392.02 40.5551 392.105 40.6404C392.141 40.6688 392.176 40.6948 392.212 40.7185C392.247 40.7422 392.283 40.7682 392.318 40.7966C392.581 41.031 392.777 41.3269 392.908 41.6844C393.036 42.0419 393.099 42.3946 393.099 42.7426ZM405 82.32L405 83.2433L397.727 80.5729L397.727 79.6638L405 76.9933L405 77.9166L398.878 80.0899L398.878 80.1467L405 82.32ZM402.159 81.9791L402.159 78.2575L402.94 78.2575L402.94 81.9791L402.159 81.9791ZM401.719 75.1361L405 75.1361L405 75.9742L399.545 75.9742L399.545 75.1645L400.398 75.1645L400.398 75.0935C400.121 74.9656 399.898 74.7715 399.73 74.5111C399.56 74.2507 399.474 73.9145 399.474 73.5026C399.474 73.1333 399.55 72.8101 399.702 72.5331C399.851 72.2561 400.078 72.0407 400.384 71.8868C400.687 71.7329 401.07 71.656 401.534 71.656L405 71.656L405 72.4941L401.591 72.4941C401.162 72.4941 400.829 72.6053 400.589 72.8279C400.348 73.0504 400.227 73.3558 400.227 73.7441C400.227 74.0116 400.285 74.2507 400.401 74.4614C400.517 74.6697 400.687 74.8342 400.909 74.955C401.132 75.0757 401.402 75.1361 401.719 75.1361ZM405.128 68.5194C405.128 68.8651 405.063 69.1788 404.933 69.4605C404.8 69.7422 404.609 69.9659 404.361 70.1317C404.11 70.2974 403.807 70.3802 403.452 70.3802C403.139 70.3802 402.886 70.3187 402.692 70.1956C402.495 70.0725 402.341 69.9079 402.23 69.702C402.119 69.496 402.036 69.2687 401.982 69.0202C401.925 68.7692 401.88 68.5171 401.847 68.2638C401.804 67.9323 401.772 67.6636 401.751 67.4577C401.727 67.2493 401.688 67.0978 401.634 67.0031C401.579 66.906 401.484 66.8575 401.349 66.8575L401.321 66.8575C400.971 66.8575 400.698 66.9534 400.504 67.1452C400.31 67.3345 400.213 67.6222 400.213 68.0081C400.213 68.4082 400.301 68.7219 400.476 68.9491C400.651 69.1764 400.838 69.3362 401.037 69.4285L400.753 70.224C400.421 70.0819 400.163 69.8925 399.979 69.6558C399.792 69.4167 399.661 69.1563 399.588 68.8746C399.512 68.5905 399.474 68.3111 399.474 68.0365C399.474 67.8613 399.496 67.6601 399.538 67.4328C399.579 67.2032 399.663 66.9818 399.79 66.7687C399.918 66.5533 400.111 66.3746 400.369 66.2325C400.627 66.0905 400.973 66.0194 401.406 66.0194L405 66.0194L405 66.8575L404.261 66.8575L404.261 66.9001C404.38 66.9569 404.506 67.0516 404.641 67.1842C404.776 67.3168 404.891 67.4932 404.986 67.7133C405.08 67.9335 405.128 68.2022 405.128 68.5194ZM404.375 68.3916C404.375 68.0602 404.31 67.7808 404.18 67.5535C404.049 67.3239 403.881 67.1511 403.675 67.0351C403.469 66.9167 403.253 66.8575 403.026 66.8575L402.259 66.8575C402.301 66.893 402.34 66.9711 402.376 67.0919C402.409 67.2103 402.438 67.3476 402.464 67.5038C402.488 67.6577 402.509 67.808 402.528 67.9548C402.545 68.0992 402.559 68.2164 402.571 68.3064C402.599 68.5242 402.646 68.7278 402.71 68.9172C402.771 69.1042 402.865 69.2557 402.99 69.3717C403.113 69.4854 403.281 69.5422 403.494 69.5422C403.786 69.5422 404.006 69.4345 404.155 69.219C404.302 69.0012 404.375 68.7254 404.375 68.3916ZM397.727 63.6517L405 63.6517L405 64.4898L397.727 64.4898L397.727 63.6517ZM407.045 61.577C407.045 61.719 407.034 61.8457 407.01 61.9569C406.989 62.0682 406.967 62.1452 406.946 62.1878L406.207 61.9747C406.259 61.7711 406.278 61.5912 406.264 61.4349C406.25 61.2787 406.18 61.1402 406.055 61.0194C405.932 60.8963 405.732 60.7839 405.455 60.6821L405.028 60.5258L399.545 62.5429L399.545 61.6338L403.892 60.1281L403.892 60.0713L399.545 58.5656L399.545 57.6565L405.795 59.9719C406.077 60.076 406.31 60.205 406.495 60.3589C406.682 60.5128 406.821 60.6916 406.911 60.8952C407 61.0964 407.045 61.3237 407.045 61.577ZM399.545 54.1782L400.256 54.1782L400.256 57.0049L399.545 57.0049L399.545 54.1782ZM398.239 56.181L398.239 55.343L403.437 55.343C403.674 55.343 403.852 55.3086 403.97 55.24C404.086 55.1689 404.164 55.079 404.205 54.9701C404.242 54.8588 404.261 54.7416 404.261 54.6185C404.261 54.5262 404.257 54.4504 404.247 54.3912C404.235 54.3321 404.226 54.2847 404.219 54.2492L404.972 54.0787C404.993 54.1356 405.014 54.2149 405.036 54.3167C405.059 54.4185 405.071 54.5475 405.071 54.7037C405.071 54.9405 405.02 55.1725 404.918 55.3998C404.817 55.6247 404.661 55.8117 404.453 55.9608C404.245 56.1076 403.982 56.181 403.665 56.181L398.239 56.181ZM405 52.9175L399.545 52.9175L399.545 52.0795L405 52.0795L405 52.9175ZM398.636 52.4914C398.636 52.6547 398.581 52.7956 398.469 52.914C398.358 53.03 398.224 53.088 398.068 53.088C397.912 53.088 397.778 53.03 397.667 52.914C397.556 52.7956 397.5 52.6547 397.5 52.4914C397.5 52.328 397.556 52.1884 397.667 52.0724C397.778 51.954 397.912 51.8948 398.068 51.8948C398.224 51.8948 398.358 51.954 398.469 52.0724C398.581 52.1884 398.636 52.328 398.636 52.4914ZM405.114 48.3286C405.114 48.8399 404.993 49.2803 404.751 49.6496C404.51 50.0189 404.177 50.303 403.754 50.5019C403.33 50.7007 402.846 50.8002 402.301 50.8002C401.747 50.8002 401.258 50.6984 400.835 50.4948C400.408 50.2888 400.076 50.0023 399.837 49.6354C399.595 49.2661 399.474 48.8352 399.474 48.3428C399.474 47.9593 399.545 47.6136 399.687 47.3058C399.83 46.9981 400.028 46.7459 400.284 46.5494C400.54 46.353 400.838 46.231 401.179 46.1837L401.179 47.0217C400.93 47.0857 400.71 47.2277 400.518 47.4479C400.324 47.6657 400.227 47.9592 400.227 48.3286C400.227 48.6553 400.312 48.9417 400.483 49.1879C400.651 49.4318 400.889 49.6224 401.197 49.7597C401.502 49.8946 401.861 49.9621 402.273 49.9621C402.694 49.9621 403.061 49.8958 403.374 49.7632C403.686 49.6283 403.929 49.4389 404.102 49.195C404.274 48.9488 404.361 48.66 404.361 48.3286C404.361 48.1108 404.323 47.9131 404.247 47.7355C404.171 47.558 404.062 47.4076 403.92 47.2845C403.778 47.1614 403.608 47.0738 403.409 47.0217L403.409 46.1837C403.731 46.231 404.021 46.3482 404.279 46.5352C404.535 46.7199 404.738 46.9649 404.89 47.2703C405.039 47.5734 405.114 47.9261 405.114 48.3286ZM400.767 41.0949L400.98 41.8477C400.855 41.8951 400.733 41.9649 400.614 42.0573C400.494 42.1472 400.394 42.2703 400.316 42.4266C400.238 42.5828 400.199 42.7829 400.199 43.0267C400.199 43.3605 400.276 43.6387 400.43 43.8612C400.581 44.0814 400.774 44.1915 401.009 44.1915C401.217 44.1915 401.381 44.1157 401.502 43.9642C401.623 43.8127 401.723 43.576 401.804 43.254L402.003 42.4443C402.121 41.9566 402.302 41.5932 402.546 41.3541C402.788 41.115 403.099 40.9955 403.48 40.9955C403.793 40.9955 404.072 41.0854 404.318 41.2654C404.564 41.4429 404.759 41.6915 404.901 42.0111C405.043 42.3307 405.114 42.7024 405.114 43.1262C405.114 43.6825 404.993 44.143 404.751 44.5075C404.51 44.8721 404.157 45.103 403.693 45.2L403.494 44.4046C403.788 44.3288 404.008 44.1856 404.155 43.9749C404.302 43.7618 404.375 43.4836 404.375 43.1404C404.375 42.7497 404.292 42.4396 404.126 42.21C403.958 41.978 403.757 41.8619 403.523 41.8619C403.333 41.8619 403.175 41.9282 403.047 42.0608C402.917 42.1934 402.82 42.397 402.756 42.6716L402.543 43.5807C402.424 44.0802 402.241 44.4472 401.992 44.6816C401.741 44.9136 401.428 45.0296 401.051 45.0296C400.743 45.0296 400.471 44.9432 400.234 44.7703C399.998 44.5951 399.812 44.3572 399.677 44.0566C399.542 43.7535 399.474 43.4102 399.474 43.0267C399.474 42.4869 399.593 42.0632 399.83 41.7554C400.066 41.4453 400.379 41.2251 400.767 41.0949Z" fill="black"/>
<circle id="Ellipse 1_7" cx="395" cy="113" r="12.5" fill="#E1D4FD" stroke="#8A8A8A"/>
<path id="7" d="M391.568 119L396.773 108.705V108.614H390.773V107.364H398.227V108.682L393.045 119H391.568Z" fill="#8A8A8A"/>
</g>
</g>
<defs>
<clipPath id="clip0_221_2">
<rect width="430" height="129" fill="white"/>
</clipPath>
</defs>
</svg>
